<?xml version="1.0" encoding="UTF-8"?>
<!DOCTYPE svg PUBLIC "-//W3C//DTD SVG 1.1//EN" "http://www.w3.org/Graphics/SVG/1.1/DTD/svg11.dtd">
<!-- Creator: CorelDRAW 2020 (64-Bit) -->
<svg xmlns="http://www.w3.org/2000/svg" xml:space="preserve" width="54.2643mm" height="85.4165mm" version="1.1" style="shape-rendering:geometricPrecision; text-rendering:geometricPrecision; image-rendering:optimizeQuality; fill-rule:evenodd; clip-rule:evenodd"
viewBox="0 0 1485.22 2337.85"
 xmlns:xlink="http://www.w3.org/1999/xlink"
 xmlns:xodm="http://www.corel.com/coreldraw/odm/2003">
 <defs>
  <style type="text/css">
   <![CDATA[
    .fil5 {fill:#29304E}
    .fil9 {fill:#2C314D}
    .fil18 {fill:#342E52}
    .fil25 {fill:#4C3848}
    .fil3 {fill:#664A77}
    .fil7 {fill:#694A75}
    .fil26 {fill:#6D4A4A}
    .fil11 {fill:#6E4537}
    .fil14 {fill:#70E0C8}
    .fil0 {fill:#7E5989}
    .fil16 {fill:#92F9E5}
    .fil22 {fill:#962329}
    .fil6 {fill:#9C6954}
    .fil20 {fill:#AEFCEE}
    .fil19 {fill:#B38B73}
    .fil24 {fill:#DA6656}
    .fil21 {fill:#E2CB6A}
    .fil15 {fill:#EB9D73}
    .fil23 {fill:#ECAE8C}
    .fil17 {fill:#EEC3A1}
    .fil12 {fill:#F7BC95}
    .fil4 {fill:#F9E6CE}
    .fil8 {fill:#FAEEDD}
    .fil13 {fill:#FBECDA}
    .fil10 {fill:#FCC394}
    .fil1 {fill:#FDEFDC}
    .fil2 {fill:#FEEFDE}
   ]]>
  </style>
 </defs>
 <g id="Layer_x0020_1">
  <metadata id="CorelCorpID_0Corel-Layer"/>
  <g id="_2738163157200">
   <path class="fil0" d="M453.72 1639.56c-21.04,103.79 -37.74,213.54 -54.25,318.83 -17.1,109.17 -36.61,212.43 -47.1,324.87l-0.05 32.1c20,6.86 46.32,6.49 67.97,13.44 -9.88,-17.55 1.32,-65.73 34.54,-63.6 17.58,22.71 -1.29,43.33 50.06,53.73l-6.17 14.66c22.26,-4.09 19.17,-9.77 46.49,-10.52 18.05,-0.48 38.02,0.21 56.3,0.31 36.22,0.18 68.5,2.73 103.37,4.39 42.99,2.05 188.11,-9.12 208.58,-2.65 9.77,-7.86 -0.82,-2.3 15.33,-5.35 7.38,-1.4 13.81,-1.97 22.49,-3.58 17.88,-3.33 26.34,-5.2 44.94,-4.39 -0.15,-141.15 -7.46,-280.64 -15.7,-422.65 -4.2,-72.25 -23.02,-377.44 -10.96,-427.72l-6.74 0c-20.32,74.48 38.3,22.65 -66.57,187.99 -27.47,43.29 -50.61,66.21 -67.62,127.29 -4.1,-8.93 -5.99,11 -5.09,-15.55 -13.98,13.85 -10.87,38 -18.92,54.7 -7.88,52.35 -22.17,129.55 13.21,162.35 49.73,6.39 89.83,-70.32 59.79,-118.91 -24.79,12.76 1.57,17.3 -31.48,22.52 -2.44,-16.72 -2.85,-38.05 1.21,-53.41 31.5,-4.1 73.81,19.78 92.55,33.07 30.99,21.96 20.06,51.7 4.16,85.3 -20.45,43.21 -63.77,127.45 -119.17,122.52 10.9,8.3 2.61,2.3 14.23,5.94 25.5,7.99 -18.66,-4.95 7.96,1.99 1.08,0.28 3.26,2.11 4.05,0.92 0.8,-1.2 2.8,0.35 4.1,0.87 -5.59,10.47 -9.48,23.85 -47.17,9.64 -79.19,-29.84 -102.4,-161.6 -132.77,-230.37l-76.79 -285.05c-8.06,-21.29 -16.28,-106.29 -36.33,-144.95 -33.03,-2.07 -32.41,12.86 -41.04,39.97l-44.05 115.62c-14.88,41.87 -6.2,47.61 -23.34,55.67z"/>
   <path class="fil1" d="M684.95 1815.91c-3.84,53.93 58.3,181.29 82.08,212.32l1.8 -12.57c10.76,6.1 -1.65,6.78 13.44,2.22 10.07,-3.05 13.03,-11.02 13.2,-20.72 0.41,-22.91 2,-1.38 -4.7,-15.84 -23.04,-49.72 -7.96,-41.8 -29.64,-44.67l-1.16 -20.4c9.65,4.27 2.49,5.1 17.66,8.63 5.15,-34.26 -10.48,-33.68 1.12,-52.28 0.7,-1.13 3.38,-4.26 4.24,-5.33l7.56 -8.27c-6.6,-21.89 -9.87,-6.4 -7.85,-25.89 1.9,-18.32 4.31,-11.45 21.93,-17.23 8.05,-16.69 4.94,-40.85 18.92,-54.7 -0.03,-43.81 90.78,-275.61 111.92,-353.53l27.87 -121.91c2.38,33.17 6.92,150.14 -0.52,175.71l6.74 0c9.58,-33.91 -6.43,-123.06 2.67,-179.67 3.04,-18.84 -1.83,-5.59 6.31,-13.67 -6.72,-11.09 -10.43,-16.67 -8.16,-35.41 18.38,-152.67 28.83,-307.35 20.14,-461.13l-16.3 -138.95c-1.1,-22.5 -1.64,-8.47 3.01,-14.89l-6.21 -8.58c-0.53,-0.66 -1.41,-1.75 -1.92,-2.36l-3.53 -3.71c-0.25,-0.26 -1.45,-0.54 -1.63,-1.45 -0.16,-0.87 -1.03,-0.92 -1.59,-1.32l-16.56 7.52c-2.33,18.53 1,14.8 1.74,34.49l20.67 -25c-6.07,20.63 3.97,-13.96 -5.16,9.77l-11.53 53.6c-1.02,8.12 -0.52,18.12 -0.52,26.35 16.04,-2.41 -8.22,-6.08 6.74,3.18 0.69,0.43 3.16,2.25 3.69,2.62l3.8 2.85c-5.58,10 -3.98,0.21 -4.79,12.48l1.37 12.06c-0.01,0.76 -0.14,1.97 -0.19,2.81 -0.06,0.98 -0.32,2.17 -0.4,3.26l-0.94 7.94c-1.34,21.8 4.26,37.41 -0.89,61.74 -4.17,19.69 2.76,50.36 -10.99,66.22 -9.46,-23.01 0.65,-59.74 -6.05,-77.66l-5.37 12.89c-3.97,8.8 -5.94,13.71 -2.61,23.23l2.93 6.25c11.58,33.76 -6.53,26.14 -1.89,41.77 0.3,0.98 4.25,7.66 5.09,10.32l-18.01 3.91c0,53.2 7.05,20.74 18.98,54.37 -2.24,38.49 -5.14,2.63 -9.8,30.86 -5.38,32.62 1.89,70.31 2.04,102.88 30.53,0.19 7.67,-1.73 14.57,6.62 13.75,16.65 6.84,49.43 6.16,71.16 -0.75,23.58 -3.27,28.64 -9.59,42.76 -0.37,0.84 -12.47,-5.21 -2.75,18.89 5.83,14.47 -0.21,1.5 6.52,8.47 1.98,2.04 5.91,5.94 6.54,5.04 0.62,-0.91 2.4,1.55 3.57,2.38 -16.39,25.68 5.14,35.2 -12.04,81.97 -29.73,0.2 -42.64,6.92 -48.29,34.62 -3.91,19.25 3.47,25.81 5.98,43.9 -18.45,2.92 -14.38,0.34 -23.24,15.31 -13.58,22.95 -11.97,74.46 -18.17,107.23 -1.96,10.32 15.41,1.35 8.92,17.31 -4.36,10.74 -1.5,3.45 -7.9,2.32l-9.65 -4.05c-0.6,-1.54 -2.21,-1.42 -3.45,-1.79 -1.44,19.15 1.55,13.84 -8.33,26.4l-12.38 15.02c-4.09,-1.42 -3.89,-2.86 -6.11,-4.59 -0.82,-0.64 -3.16,-2.58 -4.12,-3.31l-11.29 -8.57c-0.61,-1.9 -2.44,-1.56 -3.48,-2.53 5.48,-26.63 4.86,-8.25 6.9,-18.81 1.89,-9.72 -8.46,-4.96 20.71,-37.28 -8.42,-9.51 -5.19,-3.03 -8.63,-15.54l-5.2 0c-3.37,12.23 -12.88,23.35 -14.71,37.75l1.76 18.35c-19.47,8.5 -21.56,1.67 -21.56,30.2l-20.7 0c-0.88,-14.99 -3.4,-11.57 -3.8,-1.07 -0.94,24.51 1.37,-2.38 3.93,17.71l-6.78 84.42c-7.93,26.11 -0.98,-0.62 1.46,30.97 -14.33,11.42 -14.68,-2.29 -14.68,21.57 19.91,11.64 -3.12,27.28 -17.23,30.18 -7.04,-9.44 -6.82,-20.49 -9.49,-31.72 -0.23,-0.97 -0.6,-2.06 -0.85,-3l-2.1 -6c-0.28,-1.08 -0.76,-2.13 -1.01,-3.28 -2.32,-10.62 -1.32,-5.27 -1.57,-16 -1.25,-56.96 -10.91,-54.82 11.24,-81.98 9.62,-11.78 12.66,-27.12 17.75,-41.7l4.55 -12.48c8.76,-36.54 -3.53,-77.5 1.41,-114.74 3.47,-26.29 -5.65,19.62 1.57,-7.63l2.5 -6.52c6.54,-19.02 -1.3,-29.87 -6.11,-48.08 -2.63,-9.97 -5.51,-8.77 -2.89,-20.86 2.87,-13.29 0.58,5.73 4.06,-12.52 5.82,-30.58 0.82,-228.53 0.82,-263.91l17.25 8.63c0,-39.46 1.54,-17.72 13.5,-37.87 7.02,-11.82 0.4,-62.91 10.78,-92.32 0.37,-1.03 0.72,-2.18 1.08,-3.21l8.57 -25.59c6.37,-36.08 0.58,-150.59 0.68,-194.79l43.04 0c0,-8.26 -0.5,-10.99 1.42,-19.11l24.47 -93.94c-10.84,-5.77 -14.73,-5.58 -25.89,-12.94 2.33,-11.87 1.34,-6.9 6.59,-14.51 10.71,-15.51 7.34,3.57 2.04,-23.43 21.25,0 37.9,-4.02 50.08,-14.84 8.3,-7.39 9.24,-11.03 10.4,-22.13 0.85,-7.99 -0.08,-23.34 -0.08,-32.07 13.75,5.62 4.06,-2.58 10.36,10.58 2.84,5.91 1.55,8.97 1.69,15.31l5.2 0c0.48,-20.88 4.85,-15.6 -4.31,-31.08 -15.89,1.72 -15.16,7.09 -19.43,-6.02 17.22,1.2 12.96,0.45 29.76,-3.45 -0.14,0.06 -6.63,-6.26 -0.73,4.52l8.12 -4.51 -6.02 -49.7 -8.17 1.46c-8.22,9.78 -8.19,20.12 -9.4,36.06 -6.89,0.24 -24.62,-1.05 -24.78,-1.05 -53.58,-0.19 -95.29,74.78 -95.3,74.78 -14.32,11.31 -19.81,3.52 -25.24,25.27 -3.54,14.24 -3.53,27.69 -9.84,38.61 -13.18,22.74 -17.99,3.54 -23.35,26.44 -2.67,11.36 -0.7,31.59 -3.12,45.65 -4.11,23.91 -9.55,21.49 -16.82,35.28l-23.08 124.27c-0.52,35.3 -0.57,64.91 -3.27,95.44 -2.91,32.9 -6.73,53.64 -9.48,89.97 -9.07,119.44 -5.56,271.8 -4.68,397.23 0.24,33.83 4.14,58.54 4.16,94.86 0.02,27.76 -3.45,73.32 -1.83,93.65 2.12,26.43 8.49,168.05 4.08,186.84z"/>
   <path class="fil2" d="M962.35 600.31c-0.94,-24.64 -8.45,-82.83 -21.27,-99.47l-8.12 4.51c-5.9,-10.78 0.59,-4.46 0.73,-4.52 -16.79,3.9 -12.54,4.66 -29.76,3.45 4.27,13.12 3.54,7.75 19.43,6.02 9.16,15.48 4.79,10.2 4.31,31.08l-5.2 0c-0.15,-6.34 1.15,-9.4 -1.69,-15.31 -6.31,-13.16 3.39,-4.95 -10.36,-10.58 0,8.73 0.93,24.08 0.08,32.07 -1.16,11.1 -2.1,14.74 -10.4,22.13 -12.18,10.82 -28.83,14.84 -50.08,14.84 5.3,27 8.67,7.92 -2.04,23.43 -5.26,7.61 -4.26,2.64 -6.59,14.51 11.16,7.37 15.04,7.17 25.89,12.94l-24.47 93.94c-1.92,8.11 -1.42,10.84 -1.42,19.11l-43.04 0c-0.1,44.2 5.68,158.71 -0.68,194.79l-8.57 25.59c-0.36,1.03 -0.71,2.18 -1.08,3.21 -10.38,29.41 -3.76,80.5 -10.78,92.32 -11.96,20.15 -13.5,-1.59 -13.5,37.87l-17.25 -8.63c0,35.38 5,233.32 -0.82,263.91 -3.48,18.25 -1.18,-0.76 -4.06,12.52 -2.62,12.1 0.27,10.9 2.89,20.86 4.81,18.21 12.66,29.06 6.11,48.08l-2.5 6.52c-7.21,27.24 1.9,-18.67 -1.57,7.63 -4.93,37.24 7.36,78.2 -1.41,114.74l-4.55 12.48c-5.1,14.58 -8.13,29.92 -17.75,41.7 -22.15,27.16 -12.49,25.02 -11.24,81.98 0.24,10.73 -0.76,5.38 1.57,16 0.25,1.15 0.73,2.2 1.01,3.28l2.1 6c0.25,0.94 0.62,2.03 0.85,3 2.67,11.22 2.45,22.28 9.49,31.72 14.11,-2.9 37.15,-18.54 17.23,-30.18 0,-23.86 0.36,-10.15 14.68,-21.57 -2.44,-31.6 -9.39,-4.86 -1.46,-30.97l6.78 -84.42c-2.56,-20.09 -4.87,6.8 -3.93,-17.71 0.4,-10.5 2.92,-13.92 3.8,1.07l20.7 0c0,-28.53 2.1,-21.7 21.56,-30.2l-1.76 -18.35c1.83,-14.4 11.33,-25.52 14.71,-37.75l5.2 0c3.45,12.52 0.21,6.04 8.63,15.54 -29.17,32.32 -18.82,27.56 -20.71,37.28 -2.04,10.56 -1.42,-7.82 -6.9,18.81 1.05,0.97 2.87,0.63 3.48,2.53l11.29 8.57c0.96,0.73 3.29,2.67 4.12,3.31 2.22,1.72 2.02,3.17 6.11,4.59l12.38 -15.02c9.88,-12.57 6.89,-7.26 8.33,-26.4 1.24,0.37 2.85,0.25 3.45,1.79l9.65 4.05c6.4,1.12 3.54,8.42 7.9,-2.32 6.49,-15.96 -10.87,-6.99 -8.92,-17.31 6.2,-32.78 4.59,-84.28 18.17,-107.23 8.86,-14.96 4.79,-12.38 23.24,-15.31 -2.52,-18.09 -9.9,-24.65 -5.98,-43.9 5.65,-27.7 18.56,-34.42 48.29,-34.62 17.17,-46.77 -4.35,-56.29 12.04,-81.97 -1.16,-0.83 -2.95,-3.29 -3.57,-2.38 -0.63,0.91 -4.57,-3 -6.54,-5.04 -6.74,-6.97 -0.69,6 -6.52,-8.47 -9.72,-24.09 2.38,-18.05 2.75,-18.89 6.32,-14.13 8.84,-19.18 9.59,-42.76 0.68,-21.73 7.59,-54.5 -6.16,-71.16 -6.9,-8.36 15.95,-6.43 -14.57,-6.62 -0.14,-32.57 -7.42,-70.26 -2.04,-102.88 4.67,-28.23 7.56,7.63 9.8,-30.86 -11.93,-33.63 -18.98,-1.17 -18.98,-54.37l18.01 -3.91c-0.83,-2.66 -4.79,-9.35 -5.09,-10.32 -4.65,-15.63 13.46,-8.01 1.89,-41.77l-2.93 -6.25c-3.33,-9.52 -1.37,-14.42 2.61,-23.23l5.37 -12.89c6.71,17.92 -3.4,54.65 6.05,77.66 13.75,-15.87 6.82,-46.53 10.99,-66.22 5.15,-24.33 -0.45,-39.94 0.89,-61.74l0.94 -7.94c0.08,-1.09 0.34,-2.28 0.4,-3.26 0.05,-0.85 0.18,-2.06 0.19,-2.81l-1.37 -12.06c0.81,-12.27 -0.79,-2.49 4.79,-12.48l-3.8 -2.85c-0.53,-0.37 -3,-2.19 -3.69,-2.62 -14.96,-9.25 9.3,-5.58 -6.74,-3.18 0,-8.22 -0.5,-18.22 0.52,-26.35l11.53 -53.6c9.13,-23.74 -0.91,10.85 5.16,-9.77l-20.67 25c-0.74,-19.69 -4.08,-15.96 -1.74,-34.49l16.56 -7.52z"/>
   <path class="fil3" d="M391.04 439.6c-9.42,50.85 -11.18,64.45 -42.29,88.03l-76.07 50c22.6,18.75 73.69,43.53 112.84,31.48 13.05,-5.95 11.05,-11.75 21.09,-36.62 6.39,-15.83 38.28,-98.42 48.23,-107.9 30.45,15.53 43.52,52.54 112.15,53.15 -4.44,27.45 -48.98,77.56 -49.98,106.98 0.64,1.29 3.91,6.62 4.59,7.53l7.63 8.92c17.2,21.8 28.57,63.65 35.66,88.37 44.02,153.36 -8.15,203.5 -46.1,373.85 -8.04,36.09 -73.48,221.23 -89.78,255.71 -37.66,79.61 -21.55,35.41 -42.3,69.32 -13.78,22.51 -13.72,27.73 -30.62,47.06 -13.38,15.31 -15.99,31.11 -39.32,35.78 -3.54,-16.95 -0.71,-34.55 -1.4,-53.5l-3.44 -38.69c-2.42,-10.66 -1.81,-7.1 -4.1,-11.41 -0.6,47.29 3.23,98.03 0.48,145.14 -1.14,19.61 -2.62,44.24 -5.46,63.93 -0.76,5.3 -4.45,22.92 -6.75,28.09 -2.24,5.07 -2.28,3.72 -6.58,10.93 -7.08,11.88 -0.91,-1.3 -7.24,13.58 104.7,-38.78 183.87,-297.06 200.14,-312.75 -4.75,106.34 -10,180.54 -28.69,282.99 17.14,-8.05 8.46,-13.8 23.34,-55.67l44.05 -115.62c8.63,-27.11 8.01,-42.04 41.04,-39.97 20.06,38.67 28.27,123.66 36.33,144.95l76.79 285.05c30.37,68.76 53.59,200.53 132.77,230.37 37.7,14.21 41.59,0.83 47.17,-9.64 -1.29,-0.52 -3.3,-2.07 -4.1,-0.87 -0.79,1.19 -2.96,-0.63 -4.05,-0.92 -26.62,-6.94 17.54,6 -7.96,-1.99 -11.62,-3.64 -3.32,2.35 -14.23,-5.94 -29.97,-8.89 -40,-20.31 -57.87,-41.09 -23.78,-31.02 -85.92,-158.38 -82.08,-212.32 -18.6,-25.25 -58.74,-321.15 -61.1,-341.77 -14.68,-128.55 -20.19,-252.37 -20.14,-383.1 0.05,-129.51 18.79,-261.12 12.82,-388.35 -9.08,-193.62 -78.02,-270.79 -85.78,-307.92l-5.15 -3.71c-12.45,-8.89 -6.69,-7.13 -15.66,-19.77 -32.04,-45.13 -7.95,-13.46 -30.01,-63.74 -0.37,-0.85 -0.97,-1.95 -1.31,-2.8 -9.19,-23.06 -7.11,-100.2 -5.66,-128.36 -4.98,-4.06 8.49,-11.39 -9.04,-0.02 -12.1,16.08 -33.21,103.31 -39.3,129.35 -4.22,18.02 -29.36,127.3 -33.59,133.87z"/>
   <path class="fil4" d="M530.75 394.77c7.76,37.14 76.7,114.31 85.78,307.92 5.97,127.23 -12.77,258.83 -12.82,388.35 -0.05,130.72 5.46,254.54 20.14,383.1 2.35,20.62 42.5,316.52 61.1,341.77 4.41,-18.79 -1.96,-160.41 -4.08,-186.84 -1.62,-20.33 1.84,-65.89 1.83,-93.65 -0.02,-36.32 -3.91,-61.03 -4.16,-94.86 -0.89,-125.44 -4.39,-277.79 4.68,-397.23 2.75,-36.33 6.57,-57.07 9.48,-89.97 2.7,-30.53 2.75,-60.14 3.27,-95.44l23.08 -124.27c7.27,-13.8 12.72,-11.37 16.82,-35.28 2.42,-14.05 0.45,-34.28 3.12,-45.65 5.36,-22.91 10.17,-3.71 23.35,-26.44 6.32,-10.92 6.3,-24.37 9.84,-38.61 5.42,-21.75 10.92,-13.95 25.24,-25.27 0.01,0 41.72,-74.98 95.3,-74.78 0.15,0 17.89,1.28 24.78,1.05 1.2,-15.94 1.17,-26.27 9.4,-36.06l-19.76 -54.78c-13.46,8.24 -4.03,3.95 -18.52,8.92 -16.74,-17.7 -15.15,-12.37 -24.46,-17.33 -14.36,-7.64 -16.01,-16.9 -26.15,-20.65 0.08,9.43 -0.93,17.8 -1.51,22.1 2.49,31.37 13.79,26.67 11.58,53.09 -31.44,3.02 -57.79,0.95 -72.72,-17.33l2.48 -12.91c-39.34,28.27 -45.5,20.36 -80.89,-4.76 -12.23,-8.67 -18.76,-20.82 -21.54,-35.47 -5.04,-26.55 2.62,-32.63 26.07,-24.53l0.03 -25.98c-0.29,-1.61 -1.01,-2.89 -1.32,-4.15l-3.75 -7.63c-29.14,6.8 -7.85,6.38 -17.25,27.57 -36.42,3.4 -39.1,-45.42 -56.08,-71.66 -20.37,-0.5 -30.7,21.29 -56.64,55.43 -9.55,12.58 -12.62,23.16 -21.81,34.3 -10.33,12.52 -17.58,14.16 -13.88,37.92z"/>
   <path class="fil0" d="M266.52 900.96c-9.37,8.05 -3.59,-1.52 -5.09,12.61 -0.02,0.13 1.62,13.95 1.69,14.4 1.49,10.2 2.39,18.96 3.11,29.33 -5.71,5.12 8.18,7.97 -9.86,2.51 11.84,20.2 13.83,16.75 16.46,49.21 10.56,129.82 37.18,268.27 34.99,398.65 2.28,4.31 1.68,0.75 4.1,11.41l3.44 38.69c0.68,18.96 -2.14,36.56 1.4,53.5 23.33,-4.67 25.94,-20.47 39.32,-35.78 16.9,-19.33 16.84,-24.55 30.62,-47.06 20.76,-33.92 4.64,10.28 42.3,-69.32 16.3,-34.48 81.74,-219.63 89.78,-255.71 37.94,-170.35 90.11,-220.49 46.1,-373.85 -7.09,-24.72 -18.46,-66.57 -35.66,-88.37l-7.63 -8.92c-0.67,-0.92 -3.94,-6.25 -4.59,-7.53l-12.9 19.61c-2.99,6.33 -4.93,10.6 -8.17,17.55 -6.17,13.23 -11,24.52 -17.33,38.71l-96.13 241.01c-22.13,-10.38 -0.15,-2.74 -15.43,-13.27 -20.84,-14.37 -24.95,12.95 -37.33,28.91 -19.45,-7.67 -46.7,-41.57 -63.19,-56.29z"/>
   <path class="fil0" d="M987.99 641.82c4.18,23.47 11.88,27.47 15.31,44.85 26.17,132.85 17.4,249.77 12.3,382.69 -6.76,176.18 -41.56,158.55 86.51,241.47 12.8,8.28 57.51,35.21 73.94,33.54 2.5,-30.85 -0.69,-73.97 -0.7,-106.65 0,-25.16 -3.41,-80.33 8.18,-103.52 -2.14,-63.53 3.54,-155.89 8.47,-220.46l16.14 -156.42c0.86,-8.08 0.83,-20.66 2.54,-27.51 2.52,-10.08 1.06,-4.03 3.89,-10.01 0.54,-1.15 3.48,-4.3 3.86,-6.4 0.33,-1.87 1.51,-2.09 2.12,-3.21 -7.36,-8.02 -5.93,-20.39 -2.57,-38.76 0.79,-4.33 3.17,-14.64 3.3,-17.56 0.38,-8.31 -0.1,-4.94 -0.94,-10.1 -0.12,-0.73 -0.99,-1.51 -1.09,-3.13 -0.11,-1.62 -0.66,-2.14 -1.27,-3.06 -29.06,29.18 -91.85,82.8 -110.99,116.96 -24.23,-3.02 -6.4,-6.38 -23.07,-7.14 -22.07,-1.02 5.89,3.86 -18.9,5.42l-74.19 -108.81c-0.43,-1.58 -1.84,-1.51 -2.82,-2.19z"/>
   <path class="fil0" d="M463.92 176.37c17.53,-11.37 4.06,-4.04 9.04,0.02 -1.46,28.16 -3.54,105.3 5.66,128.36 0.35,0.86 0.95,1.96 1.31,2.8 22.05,50.28 -2.04,18.61 30.01,63.74 8.98,12.64 3.21,10.88 15.66,19.77 -5.25,-42.44 52.82,-162.89 76.1,-183.3 13.92,-31.14 59.22,-77.35 84.84,-97.42 80.52,-63.07 100.92,-3.22 114.13,10.2 -2.69,-19.89 -1.74,-4.44 3.61,-10.06 33.88,20.06 93.91,64.66 122.78,94.16 17.5,17.88 23.81,29.54 41.7,35.02 -11.2,-35.87 -62.57,-89.77 -83.4,-114.2 -35.25,-41.36 -67.58,-62.03 -92.58,-89.02 -5.19,-5.61 -2.29,-1.57 -6.71,-8.24 -13.25,-2.29 2.15,2.46 -8.24,-2.75 -4.3,-2.16 -6.4,-3.88 -10.07,-6.5 -26.23,-18.75 -37.32,-25.5 -71.84,-11.38 -60.49,24.73 -119.21,56.47 -172.02,91.27 -29.83,19.65 -50.04,34.06 -60,77.55z"/>
   <path class="fil5" d="M237.13 951.19c0.86,50.41 -11.14,127.09 -14.16,182.89 -6.26,115.9 -18.11,477.55 41.15,543.62 13.85,-0.89 12.92,3.17 18.14,-8.38 6.33,-14.88 0.16,-1.69 7.24,-13.58 4.3,-7.21 4.34,-5.87 6.58,-10.93 2.29,-5.17 5.98,-22.79 6.75,-28.09 2.84,-19.69 4.32,-44.32 5.46,-63.93 2.75,-47.1 -1.08,-97.85 -0.48,-145.14 2.19,-130.38 -24.43,-268.83 -34.99,-398.65 -2.63,-32.46 -4.62,-29.01 -16.46,-49.21 -7.97,-10.23 -4.87,-13.81 -19.24,-8.61z"/>
   <path class="fil6" d="M93.03 915.75c-5.95,40.49 2.53,96.56 -2.67,142.79 -6.12,54.51 -5.85,86.77 2,139.97 14.96,101.51 -27.84,156.63 -19.17,262.59 8.15,99.67 2.61,508.33 22.89,561.91 35.48,10.95 28.54,-7.15 27.53,-43.18 -4.61,-164.37 -12.84,-374.85 -9.44,-530.86 1.71,-78.17 47.22,-195.99 26.59,-272.74 -16.41,-61.12 -16.05,-72.51 -13.09,-141.43 1.7,-39.51 3.27,-100.61 10.69,-136.95l-1.38 -86.37 -40.56 0.24c8.44,12.39 6.02,1.54 18.71,16.16 -5.74,76.75 2.44,38.52 2.96,69.03 -11.47,10.9 -13.98,6.14 -25.06,18.86z"/>
   <path class="fil5" d="M1220.53 710.2c-0.61,1.12 -1.79,1.34 -2.12,3.21 -0.38,2.1 -3.32,5.25 -3.86,6.4 -2.84,5.98 -1.38,-0.07 -3.89,10.01 -1.7,6.85 -1.67,19.42 -2.54,27.51l-16.14 156.42c-4.93,64.57 -10.61,156.93 -8.47,220.46 0.09,53.34 -2.44,105.69 -1.47,159.62 0.43,24.33 2.65,86.03 10.75,107.1 9.47,24.62 10.07,21.76 18.37,26.51 31.94,-46.83 46.26,-500.01 45.27,-588.49l1.79 -167.1c-18.55,7.21 -24.24,21.75 -37.69,38.36z"/>
   <path class="fil7" d="M978.54 1268.12c20.7,12.59 97.48,113.16 194.09,153.53 5.65,2.36 14.08,5.97 19.45,7.14l19.08 -1.35c-8.3,-4.75 -8.9,-1.89 -18.37,-26.51 -8.1,-21.07 -10.32,-82.78 -10.75,-107.1 -0.97,-53.93 1.56,-106.28 1.47,-159.62 -11.59,23.2 -8.18,78.36 -8.18,103.52 0.01,32.69 3.2,75.8 0.7,106.65 -16.43,1.67 -61.14,-25.25 -73.94,-33.54 -128.07,-82.93 -93.26,-65.3 -86.51,-241.47 5.1,-132.92 13.87,-249.83 -12.3,-382.69 -3.42,-17.39 -11.13,-21.38 -15.31,-44.85l-10.76 -24.08c-4.65,6.42 -4.11,-7.61 -3.01,14.89l16.3 138.95c8.7,153.78 -1.75,308.46 -20.14,461.13 -2.26,18.73 1.45,24.32 8.16,35.41z"/>
   <path class="fil8" d="M767.03 2028.22c17.87,20.78 27.9,32.2 57.87,41.09 55.4,4.93 98.71,-79.31 119.17,-122.52 15.9,-33.6 26.83,-63.34 -4.16,-85.3 -18.74,-13.29 -61.05,-37.17 -92.55,-33.07 -4.06,15.36 -3.66,36.69 -1.21,53.41 33.05,-5.23 6.69,-9.76 31.48,-22.52 30.04,48.59 -10.06,125.31 -59.79,118.91 -35.37,-32.8 -21.09,-110 -13.21,-162.35 -17.62,5.79 -20.04,-1.09 -21.93,17.23 -2.02,19.48 1.25,4 7.85,25.89l-7.56 8.27c-0.86,1.07 -3.54,4.2 -4.24,5.33 -11.6,18.6 4.02,18.02 -1.12,52.28 -15.17,-3.54 -8.01,-4.36 -17.66,-8.63l1.16 20.4c21.69,2.87 6.6,-5.05 29.64,44.67 6.7,14.45 5.11,-7.07 4.7,15.84 -0.16,9.7 -3.13,17.67 -13.2,20.72 -15.09,4.56 -2.68,3.87 -13.44,-2.22l-1.8 12.57z"/>
   <path class="fil9" d="M800.68 120.54l4.14 16.92 5.06 12.52 32.32 9.15c2.36,23.38 -2.91,42.57 -13.47,53.15l4.32 51.19c6.96,7.57 5.06,7.69 12.34,14.68 4.14,3.96 8.88,6.85 12.9,10.41 1.24,20.76 -1.58,18.24 6.14,35.73 18.47,6.28 30.64,11.14 52.85,4.4l3.68 -26.14c-13.43,2.46 -0.33,-1.99 -8.67,4.13 -12.88,9.42 8.21,-1.16 -8.77,7.13 -9.7,-9.46 -10.55,-9.68 -11.14,-23.61 58.25,-28.56 50.59,91.45 14.76,107.61l19.76 54.78 8.17 -1.46c1.06,-13.83 31.63,-77.56 39.73,-104.32 12.95,-42.83 25.28,-77.31 -6.01,-107.16 -17.9,-5.47 -24.2,-17.14 -41.7,-35.02 -28.87,-29.49 -88.9,-74.09 -122.78,-94.16 -5.35,5.61 -6.3,-9.83 -3.61,10.06z"/>
   <path class="fil10" d="M699.76 259.45c1.54,-8.82 3.4,-15.6 10.84,-18.85 23.19,-10.16 22.06,8.06 21.96,7.48l-32.81 11.37zm103.64 -31.29c-1.84,6.76 9.18,6.17 -9.39,11.16 -13.94,3.75 -11.48,-2.42 -11.73,-2.53 2.99,-16.32 6.94,-15.98 21.12,-8.63zm-75.03 -73.8c37.81,7.34 22.04,60.85 -22.83,70.92 -16.82,0.92 -16.82,5.59 -31.37,11.22 -2.52,2.39 4.2,12.51 -18.22,3.18 -21.59,-8.97 10.16,11.13 -9.29,-7.79l-6.31 -7.49c-0.5,28.75 -8.59,18.75 -21.94,33.92 20.93,7.83 12.17,17.89 29.13,47.56 28.17,49.26 33.27,-17.82 57,4.3 15.57,14.51 -10.89,19.41 8.35,40.1 39.72,8.05 33.38,-14.9 57.55,-18.66 25.61,-3.97 40.37,17.35 64.04,19.54 8.88,-6.31 19.53,-15.17 21.59,-26.07l-10.23 -26.44c-5.15,-18.58 -40.38,-4.25 -78.24,-20.89 -0.15,-19.66 -5.57,-25.58 2.16,-42.6 7.33,7.4 2.85,-3.95 6.13,10.23 1.08,4.69 0.21,3.63 0.27,8.3 0,0.14 -1.7,12.67 -1.76,17.28l57.79 7.4 0.84 -14.89 -4.32 -51.19c-30.64,-3.34 -50.52,4.09 -58.66,-28.53 -10.62,-42.46 7,-38.22 39.82,-33.77l-5.06 -12.52 -17.52 0.31c-8.68,2.72 -12.28,2.87 -21.09,5.11 -22.7,5.79 -10.24,7.2 -37.83,11.48z"/>
   <path class="fil11" d="M1434.39 447.27c-18.11,-31.06 -7.67,-60.35 34.78,-43.59 7.3,29.47 4.3,54.52 -34.78,43.59zm-78.68 -27.3c14.29,-10.98 9.02,-10.92 18.07,-22.05 41.49,-0.47 41.79,23.43 26.22,50.43 -28.82,4.43 -26.43,0.71 -39.29,-15.34l-0.35 14.42 16.21 95.86 2.18 0.3c22.32,-0.56 25.37,3.28 38.62,3.86 17.64,0.77 14.26,-5.99 38.04,-4.61l5.42 -7.42c2.57,-46.82 37.37,-176.01 16.48,-238.53 -6.83,3.48 -6.73,-5.43 -19.72,32.71 -4.64,13.63 -7.69,26.62 -11.79,40.03l-55.28 1.17c-9.89,-23.9 -13.12,-58.06 -29.7,-74.28l-7.15 23.11c-0.96,10.15 -0.79,23.38 -0.65,33.69 0.28,22.47 2.85,44.35 2.68,66.64z"/>
   <path class="fil10" d="M1217.97 637.59c0.61,0.92 1.16,1.44 1.27,3.06 0.1,1.62 0.97,2.41 1.09,3.13 0.83,5.16 1.31,1.79 0.94,10.1 -0.13,2.91 -2.51,13.23 -3.3,17.56 -3.36,18.37 -4.79,30.74 2.57,38.76 13.45,-16.61 19.14,-31.14 37.69,-38.36l-1.79 167.1c15.01,-30.13 -4.11,-156.69 10.47,-182.75 4.88,-8.74 27.11,-32.68 33.54,-36.9 31.85,2.9 43.48,22.47 94.91,16.12 8.08,-4.05 34.46,-55.27 34.52,-55.35 31.7,-2.77 51.37,1.98 55.35,-19.68l-26.34 -6.81 1.98 -18.15 -5.42 7.42 -4.65 17.04 -65.61 2.11 -6.41 -18.4 -2.18 -0.3 -1.94 10.76c-34.01,-22.76 -29.89,-52.83 -99.62,28.42 -32.19,37.51 -42.89,39.32 -57.05,55.12z"/>
   <path class="fil7" d="M823.55 1761.18c-0.91,26.55 0.99,6.62 5.09,15.55 17.01,-61.08 40.15,-84 67.62,-127.29 104.87,-165.35 46.25,-113.51 66.57,-187.99 7.44,-25.57 2.9,-142.54 0.52,-175.71l-27.87 121.91c-21.15,77.93 -111.95,309.72 -111.92,353.53z"/>
   <path class="fil12" d="M129.95 655.95c-2.89,20.04 1.83,45.09 -0.81,72.11l1.69 48.11c-20.75,3.78 -25.51,11.5 -46.55,6.21 -1.46,45.41 -2.83,21.47 -29.58,36.85 -2.14,19.39 5.92,12.16 4.19,51.44 11.64,6.59 12.52,4.23 19.99,18.07l14.16 27.01c11.08,-12.71 13.59,-7.96 25.06,-18.86 -0.52,-30.5 -8.7,7.72 -2.96,-69.03 -12.69,-14.62 -10.27,-3.77 -18.71,-16.16l40.56 -0.24 1.38 86.37c27.71,-7.69 23.57,-18 46.86,-24.35 8.28,14.59 17.53,24.55 30.15,38.59 12.74,14.17 21.25,14.26 21.77,39.1 14.37,-5.2 11.27,-1.62 19.24,8.61 18.04,5.46 4.15,2.61 9.86,-2.51 -0.72,-10.38 -1.62,-19.13 -3.11,-29.33 -0.07,-0.45 -1.71,-14.27 -1.69,-14.4 1.5,-14.13 -4.29,-4.56 5.09,-12.61 -6.53,-8.47 -1.96,-2.67 -9.29,-9.31l-55.12 -57.1c-29.3,-40.26 -1.93,-39.83 -65.72,-58.04 -4.57,-24.78 -2.38,-49.42 -1.64,-73.95 1.67,-55.78 4.99,-43.33 17.53,-57.2l-22.32 10.59z"/>
   <path class="fil13" d="M864.42 324.3l-8.34 0.8c-2.07,10.9 -12.72,19.76 -21.59,26.07 -23.68,-2.19 -38.43,-23.51 -64.04,-19.54 -24.18,3.76 -17.83,26.71 -57.55,18.66l-11.42 -1.34c-23.45,-8.1 -31.11,-2.02 -26.07,24.53 2.78,14.65 9.31,26.79 21.54,35.47 35.39,25.12 41.55,33.03 80.89,4.76 4.65,-3.77 3.81,-2.44 10.33,-6.52 25.79,-14.07 10.65,-31.62 49.84,-38.42 10.14,3.75 11.79,13 26.15,20.65 9.3,4.95 7.72,-0.38 24.46,17.33 14.48,-4.96 5.06,-0.68 18.52,-8.92 35.83,-16.16 43.49,-136.17 -14.76,-107.61 0.59,13.93 1.44,14.16 11.14,23.61 16.98,-8.3 -4.12,2.28 8.77,-7.13 8.35,-6.11 -4.76,-1.67 8.67,-4.13l-3.68 26.14c-22.21,6.74 -34.38,1.87 -52.85,-4.4z"/>
   <path class="fil14" d="M6.43 517.21l-4.15 42.92 14.91 -3.09c6.65,12.38 25.86,65.12 55.05,68.91l4.78 -0.47c14.04,-1.03 -4.22,-61.98 19.7,-78.17 12.49,5.68 13.79,14.36 17.21,29.7 3.04,13.61 4.15,31 6.4,46.72 19.63,2.45 32.97,-13.35 42.35,-27.42 16.66,-25.03 3.65,-43.56 29.91,-48.45l-6.31 -39.9c-26.1,7.4 -9.98,13.25 -38.97,20.84 -18.67,4.88 -31.13,7.38 -50.45,7.95 -21.44,0.63 -32.91,1.03 -52.14,-4.91 -14.07,-4.35 -23.87,-8.47 -29.97,-20.8 -0.06,13.87 2.09,-0.44 -8.33,6.18z"/>
   <path class="fil15" d="M601.7 207.76c9.4,15.37 3.83,25.99 21.38,38.63 27.12,-6.79 21.69,-29.9 23.59,-59.5 19.79,-13.01 54.81,-26.04 81.7,-32.52 27.59,-4.29 15.13,-5.7 37.83,-11.48 8.81,-2.24 12.4,-2.38 21.09,-5.11l17.52 -0.31 -4.14 -16.92c-13.22,-13.42 -33.61,-73.27 -114.13,-10.2 -25.62,20.06 -70.92,66.27 -84.84,97.42z"/>
   <path class="fil6" d="M2.28 560.13c-12,47.79 25.17,93.25 69.27,93.05 24.45,4.55 5.28,6.13 25.64,8.39 12.61,1.4 21.91,-2.07 32.75,-5.62l22.32 -10.59c19.94,-8.01 31.79,-15.8 40.72,-36.08 9.56,-21.73 12.58,-44.07 -0.39,-61.42 -26.26,4.89 -13.25,23.42 -29.91,48.45 -9.38,14.07 -22.72,29.87 -42.35,27.42 -2.25,-15.71 -3.36,-33.11 -6.4,-46.72 -3.42,-15.34 -4.72,-24.02 -17.21,-29.7 -23.92,16.18 -5.66,77.14 -19.7,78.17l-4.78 0.47c-29.19,-3.79 -48.41,-56.53 -55.05,-68.91l-14.91 3.09z"/>
   <path class="fil16" d="M44.81 465.44c-18.01,4.77 -35.21,34.16 -38.38,51.77 10.41,-6.62 8.27,7.69 8.33,-6.18 6.1,12.33 15.91,16.45 29.97,20.8 19.23,5.94 30.7,5.55 52.14,4.91 19.31,-0.57 31.78,-3.07 50.45,-7.95 29,-7.59 12.87,-13.44 38.97,-20.84 -8.05,-13.11 -19.44,-30.13 -29.35,-35.44 -23.6,-6.24 -25.3,-16.55 -64.52,-21.88l-3.66 14.96c-3.14,15.63 -5.52,30.1 -46.71,29.23 2.19,-19.06 0.28,-21.03 14.65,-31.59l-11.89 2.2z"/>
   <path class="fil17" d="M601.7 207.76c-23.28,20.42 -81.35,140.87 -76.1,183.3l5.15 3.71c-3.7,-23.77 3.55,-25.41 13.88,-37.92 9.19,-11.15 12.26,-21.73 21.81,-34.3 25.95,-34.14 36.27,-55.93 56.64,-55.43 16.98,26.24 19.66,75.06 56.08,71.66 9.41,-21.19 -11.88,-20.77 17.25,-27.57l3.75 7.63c0.31,1.25 1.04,2.54 1.32,4.15l-0.03 25.98 11.42 1.34c-19.24,-20.69 7.23,-25.59 -8.35,-40.1 -23.74,-22.11 -28.83,44.96 -57,-4.3 -16.96,-29.67 -8.19,-39.74 -29.13,-47.56 13.35,-15.17 21.44,-5.17 21.94,-33.92l6.31 7.49c19.45,18.92 -12.3,-1.17 9.29,7.79 22.42,9.32 15.7,-0.79 18.22,-3.18 -17.79,-0.85 -6.19,3.37 -17.6,-4.02 0.12,-16.35 -0.76,-21.11 8.55,-31.47l9.36 -7.35c21.38,-14.21 44.78,-31.13 66.52,-31.93l-0.85 41.84c-13.55,7.06 -23.73,11.73 -34.61,21.72 44.87,-10.07 60.64,-63.59 22.83,-70.92 -26.9,6.48 -61.91,19.51 -81.7,32.52 -1.91,29.6 3.53,52.71 -23.59,59.5 -17.55,-12.64 -11.99,-23.26 -21.38,-38.63z"/>
   <path class="fil13" d="M828.72 212.28c10.57,-10.58 15.84,-29.77 13.47,-53.15l-32.32 -9.15c-32.82,-4.44 -50.44,-8.68 -39.82,33.77 8.14,32.61 28.03,25.18 58.66,28.53z"/>
   <path class="fil18" d="M420.28 2328.81c19.74,10.55 54.65,7.08 78.43,4.79l6.17 -14.66c-51.35,-10.4 -32.48,-31.02 -50.06,-53.73 -33.22,-2.13 -44.42,46.05 -34.54,63.6z"/>
   <path class="fil9" d="M996.22 2311.82c-18.6,-0.8 -27.06,1.06 -44.94,4.39 -8.68,1.61 -15.11,2.18 -22.49,3.58 -16.15,3.05 -5.56,-2.51 -15.33,5.35 15.35,16.27 64.29,12.79 89.35,11.47 52.94,-2.82 51.48,-6.53 53.08,-45.8 -14.42,-13.41 -13.33,-24.48 -34.61,-24.44l-3.89 19.75c11.99,5.33 3.99,-5 19.24,4.32 -1.32,31.57 -16.11,36.42 -40.4,21.38z"/>
   <path class="fil13" d="M674.18 236.51c14.55,-5.62 14.55,-10.3 31.37,-11.22 10.88,-9.99 21.06,-14.66 34.61,-21.72l0.85 -41.84c-21.74,0.8 -45.14,17.72 -66.52,31.93l-9.36 7.35c-9.31,10.37 -8.43,15.12 -8.55,31.47 11.41,7.4 -0.18,3.17 17.6,4.02z"/>
   <path class="fil19" d="M85.47 719.17l2.76 -6.37 34.37 1.35 6.54 13.91c2.64,-27.03 -2.08,-52.08 0.81,-72.11 -10.84,3.55 -20.15,7.01 -32.75,5.62 -20.36,-2.25 -1.19,-3.83 -25.64,-8.39 -0.02,26.83 -1.14,48.36 13.91,65.99z"/>
   <path class="fil6" d="M85.47 719.17l-1.18 63.22c21.04,5.29 25.79,-2.42 46.55,-6.21l-1.69 -48.11 -6.54 -13.91 -34.37 -1.35 -2.76 6.37z"/>
   <path class="fil20" d="M44.81 465.44l11.89 -2.2c-14.37,10.57 -12.46,12.54 -14.65,31.59 41.18,0.86 43.57,-13.61 46.71,-29.23l3.66 -14.96c39.22,5.33 40.92,15.64 64.52,21.88 -19.67,-34.89 -89.84,-39.14 -112.12,-7.08z"/>
   <path class="fil21" d="M1355.71 419.97l4.66 27.47 0.35 -14.42c12.86,16.05 10.47,19.77 39.29,15.34 15.56,-27.01 15.27,-50.91 -26.22,-50.43 -9.05,11.14 -3.78,11.08 -18.07,22.05z"/>
   <path class="fil22" d="M788.16 407.19l-1.57 14.59c17.5,6.31 28.68,13.66 50.92,11.97 -2.08,-10.89 -9.75,-18.18 -8.62,-28.67 2.85,-26.41 -0.99,-6.01 7.59,-14.22 0.58,-4.29 1.59,-12.67 1.51,-22.1 -39.19,6.8 -24.04,24.35 -49.84,38.42z"/>
   <path class="fil21" d="M1434.39 447.27c39.08,10.93 42.08,-14.11 34.78,-43.59 -42.45,-16.76 -52.89,12.52 -34.78,43.59z"/>
   <path class="fil15" d="M856.08 325.1l8.34 -0.8c-7.72,-17.49 -4.89,-14.97 -6.14,-35.73 -4.03,-3.57 -8.76,-6.45 -12.9,-10.41 -7.29,-6.98 -5.38,-7.1 -12.34,-14.68l-0.84 14.89 -57.79 -7.4c0.06,-4.61 1.76,-17.13 1.76,-17.28 -0.06,-4.67 0.82,-3.61 -0.27,-8.3 -3.28,-14.19 1.19,-2.83 -6.13,-10.23 -7.73,17.02 -2.3,22.94 -2.16,42.6 37.86,16.64 73.09,2.32 78.24,20.89l10.23 26.44z"/>
   <path class="fil23" d="M788.16 407.19c-6.52,4.09 -5.69,2.75 -10.33,6.52l-2.48 12.91c14.92,18.27 41.28,20.34 72.72,17.33 2.21,-26.42 -9.09,-21.72 -11.58,-53.09 -8.58,8.2 -4.74,-12.19 -7.59,14.22 -1.13,10.49 6.54,17.79 8.62,28.67 -22.25,1.69 -33.43,-5.66 -50.92,-11.97l1.57 -14.59z"/>
   <path class="fil24" d="M1455.43 542.84c-23.79,-1.38 -20.4,5.38 -38.04,4.61 -13.26,-0.58 -16.31,-4.42 -38.62,-3.86l6.41 18.4 65.61 -2.11 4.65 -17.04z"/>
   <path class="fil25" d="M699.76 259.45l32.81 -11.37c0.1,0.58 1.23,-17.64 -21.96,-7.48 -7.44,3.25 -9.31,10.04 -10.84,18.85z"/>
   <path class="fil26" d="M782.29 236.8c0.25,0.1 -2.21,6.28 11.73,2.53 18.57,-4.98 7.54,-4.4 9.39,-11.16 -14.17,-7.35 -18.13,-7.69 -21.12,8.63z"/>
  </g>
 </g>
</svg>
