<?xml version="1.0" encoding="UTF-8"?>
<!DOCTYPE svg PUBLIC "-//W3C//DTD SVG 1.1//EN" "http://www.w3.org/Graphics/SVG/1.1/DTD/svg11.dtd">
<!-- Creator: CorelDRAW 2020 (64-Bit) -->
<svg xmlns="http://www.w3.org/2000/svg" xml:space="preserve" width="73.6819mm" height="92.4048mm" version="1.1" style="shape-rendering:geometricPrecision; text-rendering:geometricPrecision; image-rendering:optimizeQuality; fill-rule:evenodd; clip-rule:evenodd"
viewBox="0 0 839.34 1052.62"
 xmlns:xlink="http://www.w3.org/1999/xlink"
 xmlns:xodm="http://www.corel.com/coreldraw/odm/2003">
 <defs>
  <style type="text/css">
   <![CDATA[
    .fil21 {fill:#272F4D}
    .fil26 {fill:#282A45}
    .fil4 {fill:#29304D}
    .fil5 {fill:#29304E}
    .fil14 {fill:#2C314D}
    .fil20 {fill:#2D3352}
    .fil6 {fill:#664A77}
    .fil2 {fill:#724E7D}
    .fil9 {fill:#72517E}
    .fil1 {fill:#7E5989}
    .fil7 {fill:#81598D}
    .fil24 {fill:#962329}
    .fil22 {fill:#DA6656}
    .fil13 {fill:#DAC8E6}
    .fil17 {fill:#E6CDEF}
    .fil12 {fill:#E8BAA5}
    .fil16 {fill:#EBA479}
    .fil23 {fill:#ECAE8C}
    .fil27 {fill:#F8DCC6}
    .fil3 {fill:#F9E6CE}
    .fil11 {fill:#FBE4CB}
    .fil18 {fill:#FBECDA}
    .fil8 {fill:#FCC394}
    .fil25 {fill:#FCD2AB}
    .fil19 {fill:#FCEBD5}
    .fil10 {fill:#FDC59A}
    .fil15 {fill:#FDEEDA}
    .fil0 {fill:#FDEFDC}
   ]]>
  </style>
 </defs>
 <g id="Layer_x0020_1">
  <metadata id="CorelCorpID_0Corel-Layer"/>
  <g id="_2738167840032">
   <path class="fil0" d="M331.81 516.64c-1.53,8.41 0.96,28.38 1.93,36.88 1.36,11.95 3.14,23.7 4.9,35.48 5.7,38.07 39.34,191.35 38.7,197.23 3.49,4.9 4.38,12.6 5.39,18.81 3.1,18.96 17.45,94.45 9.2,105.02 -3.1,3.97 -9.29,6.41 -16.11,7.26 -3.68,0.45 -8.22,0.58 -11.84,-0.28 -15.17,-3.63 -8.82,-25.49 -8.62,-25.83 8.08,-7.04 10.22,-4.45 18.86,-9.55 -4.98,-11.4 -30.43,-11.69 -31.18,-6.09 -0.35,2.6 -5.06,3.14 1.34,23.5 2.14,6.81 5.19,14.91 8.59,21.83 12.7,25.82 11.4,31.81 30.63,29.62 25.42,-12.8 40.59,-27.14 49.53,-62.11 7.8,-30.51 14.48,-61.47 20.76,-92.6 5.21,-25.81 37.3,-177.58 34.82,-192.04 -3.54,-13.88 1.86,-60.29 1.41,-77.66 -1.17,-44.66 10.51,-197.97 -0.23,-230.59 -17.31,-1.65 -20.7,0.69 -32.19,5.27 -14.89,5.93 -35.57,13.7 -52.43,5.92 -7.86,-3.62 -27.03,-16.66 -40.26,-8.98 -3.95,2.29 -12.82,27.95 -14.5,35.23 -3.44,14.91 -3.25,30.47 -8.66,43.82 -6.55,16.16 -4.3,60.16 -8.15,74.82 -7.8,29.67 4.93,40.68 -1.88,65.02z"/>
   <path class="fil1" d="M513.75 290c-4.16,3.42 -0.78,1.2 -7.5,3.12l0.3 157.43 0.92 10.88c2.37,0.06 6.25,37.94 8.25,48.13 1.25,6.37 2.04,19.33 2.66,25.67 1.04,10.66 1.26,19.83 1.62,30.43 0.93,27.76 7.96,31.02 12.09,46.96 3.78,14.54 11.32,37.77 34.68,30.32 0.42,-0.13 0.87,-0.33 1.27,-0.48 0.39,-0.15 0.86,-0.36 1.24,-0.52 5.81,-2.51 18.89,-16.3 23.57,-21.18 14.92,-15.54 17.27,-20.96 19.68,-23.39l8.89 -9.09c0.23,-0.29 0.57,-0.72 0.8,-1.01 0.23,-0.29 0.58,-0.69 0.81,-0.98l11.26 -12.07c1.85,-2.03 12.51,-22.85 28,-31.17l14.62 -7.47c7.73,-1.11 3.53,-2.04 7,1.84 25.34,-8.67 38.2,-15.82 49,-37.86 -33.98,-4.14 -1.72,-91.9 -32.18,-172.4 -4.53,-11.96 -10.7,-22.19 -15.78,-34.42 -4.77,-11.48 -9.44,-22.69 -13.29,-36.75 -4.34,-15.81 -5.83,-27.37 -6.8,-44.04 -1.38,-23.77 -0.28,-27.59 4.68,-46.7 -2.66,-2.92 -2.85,3.26 -2.16,-8.37 0.04,-0.73 1.07,-6.29 1.34,-7.97l0.25 -16.06c-11.47,33.65 -44.4,72.09 -62.59,93.87 -11.24,13.44 -64.68,63.28 -92.61,63.3z"/>
   <path class="fil1" d="M301.93 673.97c-6.95,47.1 -35.63,327.62 -35.07,364.93 1,0.47 3.55,1.33 6.32,2.23 -0.94,-8.27 2.4,-17.51 5.94,-24.68 4.48,-9.07 8.32,-11.89 21.45,-10.47 4.2,6.05 5.53,13.7 9.43,20.72 5.73,10.32 11.22,9.99 16.05,16.56l-6.51 3.61c27.28,-2.95 36.67,-1.13 63.31,2.12 15.02,1.82 58.03,1.3 66.37,3.62 6.89,-4.03 8.26,-1.27 24.97,-4.57 11.41,-2.26 12.72,-4.93 25.15,-1.94 5.24,-12.62 6.35,1.3 21.09,-29.05 2.51,-5.17 0.49,-2.11 3.32,-5.06 -0.7,-5.48 1.53,-6.66 8.19,-6.36 5.99,0.27 10.45,1.74 9.33,6.26 6.18,3.52 2.13,-0.52 6.04,5.81 0.19,0.31 2.16,5.62 2.43,6.36 1.59,4.5 2.99,8.11 3.13,13.91 4.65,-2.71 4.45,0.06 5.67,-7.53 2.73,-16.93 -12.38,-134.58 -14.34,-151.27 -3.14,-26.8 -6.89,-53.73 -9.93,-80.45 -2.65,-23.27 -3.86,-55.74 -8.01,-77.63l-6.13 -1.16c-0.86,-8.57 -8.9,-25.65 -11.19,-28.62 -7.84,2 -6.98,6.11 -10.33,14.92l-13.4 59.5c-5.73,27.15 -11.5,54.77 -18.58,81.06 -3.51,13.05 -6.13,26.01 -9.98,40.89 -1.09,4.2 -3.49,13.89 -5.33,19.81 -0,0.01 -1.85,4.3 -2.01,4.62l-1.83 3.61c-1.69,3.5 -2.07,4.7 -3.53,7.25 -5.88,10.28 -13.71,18 -22.09,26.09 -6.7,6.47 -6.18,5.69 -18.82,5.86 -6.08,0.09 -18.04,1.92 -19.44,-4.42 -19.23,2.19 -17.94,-3.8 -30.63,-29.62 -3.4,-6.92 -6.45,-15.02 -8.59,-21.83 -6.4,-20.36 -1.69,-20.9 -1.34,-23.5 0.75,-5.61 26.2,-5.32 31.18,6.09 -8.64,5.11 -10.79,2.52 -18.86,9.55 -0.2,0.34 -6.55,22.21 8.62,25.83 3.61,0.86 8.16,0.73 11.84,0.28 6.82,-0.85 13.01,-3.3 16.11,-7.26 8.25,-10.57 -6.1,-86.07 -9.2,-105.02 -1.01,-6.21 -1.9,-13.91 -5.39,-18.81l-1.88 6.73c-0.19,-9.43 -9.31,-44.11 -14.17,-56.85 -1.52,-3.97 -2,-6.15 -3,-9.96l-19.76 -62.35c-5.53,-16.38 -7.33,-23.9 -18.12,-34.79 -6.15,7.89 -6.79,23.85 -11.7,35.72 -2.73,6.59 -4.17,6.87 -6.77,9.25z"/>
   <path class="fil1" d="M158.43 161.45c5.25,17.34 8.14,6.73 7.35,43.25 -1.97,91.53 -49.03,100.28 -50.9,206.42 -0.31,17.33 -0.08,34.98 -0.76,52.24 -0.36,9.01 -1.02,37.85 -16.22,34.88 6.53,10.87 22.69,16.89 35.12,19.6 36.64,8 58.28,0.14 76.46,34.73 4.19,7.97 15.26,32.15 20.37,35.57 2.11,-4.08 -0.67,-0.14 3.3,-1.5 6.64,-2.27 26.83,-22 32.89,-32.41 2.9,-4.98 3.67,-6.24 6.97,-10.9l5.39 -8.96c6.15,-10.04 2.89,-9.02 4.96,-20.66l8.51 -25.19c0.18,-0.34 0.45,-0.78 0.63,-1.13 0.18,-0.36 0.43,-0.82 0.6,-1.2l25.08 -91.24c1.3,-7.84 2.67,-7.87 4.02,-14.56 0.13,3 0.14,6.35 0.58,9.34 0.29,1.93 0.57,3.44 1.15,5.3 1.63,5.19 0.95,2.91 2.14,4.88l-1.97 -92.88c-4.4,-4.6 -3.7,5.95 -3.7,-5.82 2.23,4.36 0.64,33.04 -0.82,40.99 -5.28,-5 -1.17,4.01 -4.62,-7.07 -0.93,-2.99 -0.63,-6.48 -0.63,-10.14 -7.41,-4.65 -3.04,2.45 -6.38,-5.54l-3.53 -10.8c-4.91,2.01 -3.52,-4.01 -3.78,7.37l-9.57 -6.7c-0.46,-0.28 -1.92,-0.91 -2.38,-1.18l-2.24 -1.28c-2.61,-2.06 -2.35,-1.39 -3.77,-5.2 -16.9,5.56 -0.55,0.92 -14.12,-0.25l0 -6.69 6.94 0c-2.23,-6.28 -1.14,-1.02 -8.38,-6.27 -4.75,-3.45 -9.84,-16.26 -11.88,-7.41 -1.64,-7.49 -3.74,-5.94 -7.86,-11.34 11.66,-0.36 5,1.17 6.51,-4.33 -7.52,-2.17 -8.01,-5.68 -12.51,-11.17 -0.47,0.17 -1.04,0.19 -1.25,0.81 -0.22,0.62 -0.96,0.63 -1.26,0.79 -5.34,2.86 3.74,2.85 -6.3,2.31 -4.32,-0.23 -1.59,0.05 -4.54,-2.07 -10.23,-7.35 -7.04,-11.23 -15.79,-16.65 -0.22,-0.14 -0.79,-0.34 -1.14,-0.59 4.7,-2.89 3.6,-1.74 10.46,-0.99 -1.91,-7.03 -0.38,-1.21 -1.63,-4.35 -2.44,-6.15 -1.88,-5.23 -5.48,-7.23l0.86 -7.01c-1.37,-5.7 -10.29,-14.37 -14,-19.35 -11.08,-14.87 -34.29,-48.32 -38.49,-64.17 -1.35,1.81 -3.08,-0.45 -1.48,12.02 0.61,4.69 0.98,9.12 1.39,13.87 -2.07,1.29 2.72,4.63 -4.31,-0.15z"/>
   <path class="fil2" d="M229.85 588.15c1.76,12.45 23.12,40.14 30.47,48.37 7.32,8.2 12.23,12.54 20.76,18.7 7.24,5.23 19.46,9.15 20.85,18.75 2.6,-2.38 4.04,-2.66 6.77,-9.25 4.91,-11.88 5.55,-27.83 11.7,-35.72 10.79,10.9 12.59,18.42 18.12,34.79l19.76 62.35c1,3.81 1.48,5.99 3,9.96 4.86,12.74 13.98,47.43 14.17,56.85l1.88 -6.73c0.64,-5.87 -33,-159.16 -38.7,-197.23 -1.76,-11.78 -3.54,-23.53 -4.9,-35.48 -0.97,-8.5 -3.46,-28.47 -1.93,-36.88 -3.9,-7.13 -5.59,-100.17 -5.73,-116.71 -1.19,-1.97 -0.51,0.31 -2.14,-4.88 -0.58,-1.87 -0.86,-3.37 -1.15,-5.3 -0.44,-2.99 -0.45,-6.34 -0.58,-9.34 -1.35,6.69 -2.72,6.72 -4.02,14.56l-25.08 91.24c-0.17,0.37 -0.42,0.84 -0.6,1.2 -0.17,0.35 -0.45,0.79 -0.63,1.13l-8.51 25.19c-2.07,11.64 1.2,10.61 -4.96,20.66l-5.39 8.96c-3.3,4.66 -4.07,5.92 -6.97,10.9 -6.06,10.4 -26.25,30.13 -32.89,32.41 -3.97,1.36 -1.19,-2.58 -3.3,1.5z"/>
   <path class="fil3" d="M331.8 206.14c-5.66,19.45 -8.78,21.08 -8.56,45.25 0.17,18.6 0.77,37.1 0.87,55.65l1.97 92.88c0.14,16.54 1.83,109.58 5.73,116.71 6.81,-24.34 -5.92,-35.35 1.88,-65.02 3.85,-14.66 1.6,-58.66 8.15,-74.82 5.41,-13.35 5.22,-28.91 8.66,-43.82 1.68,-7.28 10.55,-32.94 14.5,-35.23 13.23,-7.68 32.41,5.36 40.26,8.98 16.86,7.78 37.54,0 52.43,-5.92 11.49,-4.57 14.87,-6.91 32.19,-5.27 10.74,32.62 -0.94,185.94 0.23,230.59 0.45,17.37 -4.95,63.77 -1.41,77.66 1.49,-2.27 0.51,0.11 1.88,-4.28 0.48,-1.52 0.79,-3.03 1.11,-4.59l9.95 -65.39c3.15,-24.53 5.57,-53.99 4.9,-78.98l-0.3 -157.43c6.72,-1.92 3.35,0.31 7.5,-3.12l-1.22 -2.21c-2.78,2.08 -2.67,0.76 -5.45,2.33 -0.08,-10.55 1.23,-22.44 2.19,-33.42 0.89,-10.22 4.21,-22.97 4.07,-31.02 -1.94,-10.76 1.22,-5.18 -5.19,-12.87 -2.8,-3.35 -4.68,-6.52 -8.62,-9.17 -7.29,0.26 -13.77,2.31 -18.12,9.12 -4.82,7.55 -3.85,15.39 4.94,18.88 -0.24,6.04 -2.17,6.58 -4.55,10.93 -7.12,13.03 2.1,3.93 -0.91,20.92 -0.06,0.34 -0.26,0.88 -0.29,1.23 -1.14,10.66 4.17,2.05 0.8,11.63 -0.19,0.53 -1.66,2.89 -2.24,4.82 2.87,0.64 3.01,-0.78 7.08,5.49l10.15 -5.29c-0.97,1.55 -1.08,1.15 -1.81,4.71 -14.77,0.14 -6.33,0.22 -14.71,4.07 -6.41,2.95 -7.26,-0.16 -13.37,1.24 -5.56,1.27 -4.79,3.79 -12.09,3.3 -7.51,-0.5 -11.13,-0.88 -19.09,-0.64 -3.71,-8.25 3.03,-4.08 -5.91,-7.29 -2.11,5.61 0.07,0.16 -13.15,4.33 -7.53,2.38 -3.45,1.99 -13.69,1.9 2.87,0.24 4.74,-1.97 6.76,-3.92 -0.37,-0.38 -1.06,-1.35 -1.24,-0.99l-5.95 -8.22c-2.67,-4 -1.33,-4.92 -13.51,-5.14 -0.83,-4.21 -1.68,-5.79 -5.39,-7.2l1.82 -5.17c-10.69,4.32 -22.98,-1.88 -25.52,-5.13 -4.23,-5.41 -6.64,-21.2 -3.22,-27.54 11.38,-1.84 3.72,-3.7 9.81,5.08 0.24,0.34 0.7,1.73 0.87,1.43 0.17,-0.31 0.49,1.06 0.88,1.48l0.4 -16.05 -11.95 -0.56 -0.82 -9.31 -1.1 -9.62c-0.85,-3.31 0.39,-11.23 -3.48,-16.41l-5.99 5.87c-1.57,2.24 -2.47,4.14 -3.95,6.85 -2.21,4.01 -4.65,9.98 -9.18,7.69z"/>
   <path class="fil4" d="M97.9 498.24c15.21,2.97 15.87,-25.87 16.22,-34.88 0.68,-17.26 0.45,-34.91 0.76,-52.24 1.88,-106.14 48.94,-114.89 50.9,-206.42 0.78,-36.52 -2.11,-25.9 -7.35,-43.25 -1.14,-5.94 -3.84,-10.1 -6.49,-16.41 -2.87,-6.85 -3.57,-13.85 -11.1,-14.12 -0.86,5.67 -4.4,11.57 -5.69,21.3 -7.45,56.32 -19.21,110.19 -37.6,163.6 -11.52,33.47 -22.74,49.98 -22.59,91.78 0.08,24.09 8.39,79.03 22.93,90.65z"/>
   <path class="fil5" d="M669.52 165.23c-4.96,19.12 -6.06,22.94 -4.68,46.7 0.96,16.67 2.46,28.22 6.8,44.04 3.85,14.06 8.52,25.27 13.29,36.75 5.09,12.24 11.26,22.46 15.78,34.42 30.46,80.5 -1.8,168.26 32.18,172.4 11.68,-31.94 22.3,-40.64 22.26,-91.95 -0.03,-42.8 -10.79,-57.74 -22.8,-92.35 -13.55,-39.02 -27.39,-95.64 -34.12,-137.95 -3.33,-20.95 -1.65,-31.81 -11.33,-47.39 -5.76,4.05 -15.3,28.6 -17.37,35.32z"/>
   <path class="fil6" d="M488.7 603.78c2.48,14.46 -29.61,166.23 -34.82,192.04 -6.28,31.13 -12.96,62.09 -20.76,92.6 -8.93,34.97 -24.11,49.31 -49.53,62.11 1.4,6.33 13.36,4.5 19.44,4.42 12.65,-0.17 12.13,0.61 18.82,-5.86 8.38,-8.09 16.21,-15.81 22.09,-26.09 1.46,-2.55 1.84,-3.75 3.53,-7.25l1.83 -3.61c0.16,-0.33 2,-4.62 2.01,-4.62 1.84,-5.92 4.25,-15.61 5.33,-19.81 3.86,-14.88 6.47,-27.83 9.98,-40.89 7.08,-26.29 12.84,-53.92 18.58,-81.06l13.4 -59.5c3.35,-8.81 2.49,-12.92 10.33,-14.92 2.3,2.97 10.34,20.05 11.19,28.62l6.13 1.16 -4.01 -44.47c4.15,-3.9 -7.64,-3.27 6.44,-3.27l-1.31 -1.12c-0.61,-3.33 -0.3,-1.95 0.44,-4.51 1.1,-3.83 2.63,-6.79 4.92,-8.75l-4.78 -4.66c-0.24,-0.28 -0.56,-0.72 -0.81,-1.01 -10.12,-12.02 -6.1,-12.36 -6.22,-39.29 -0.06,-14.07 -2.52,-13.92 -3.59,-24.99 -0.81,-8.5 -0.27,-16.48 -1.51,-25.09 -6.21,-42.95 -6.36,-34.97 -6.22,-77.35 0.03,-8.84 -2.75,-18.06 -2.14,-25.19l-0.92 -10.88c0.67,24.99 -1.75,54.44 -4.9,78.98l-9.95 65.39c-0.32,1.56 -0.64,3.07 -1.11,4.59 -1.37,4.39 -0.39,2.01 -1.88,4.28z"/>
   <path class="fil7" d="M215.33 219.23l-0.86 7.01c3.6,2 3.04,1.09 5.48,7.23 1.25,3.15 -0.28,-2.68 1.63,4.35 -6.87,-0.75 -5.76,-1.9 -10.46,0.99 0.35,0.25 0.92,0.45 1.14,0.59 8.75,5.42 5.56,9.3 15.79,16.65 2.95,2.12 0.22,1.84 4.54,2.07 10.04,0.54 0.96,0.55 6.3,-2.31 0.3,-0.16 1.04,-0.17 1.26,-0.79 0.21,-0.62 0.78,-0.64 1.25,-0.81 4.5,5.5 4.99,9 12.51,11.17 -1.51,5.5 5.15,3.97 -6.51,4.33 4.12,5.4 6.22,3.85 7.86,11.34 2.03,-8.84 7.12,3.97 11.88,7.41 7.23,5.25 6.15,-0.02 8.38,6.27l-6.94 0 0 6.69c13.57,1.16 -2.78,5.81 14.12,0.25 1.42,3.81 1.16,3.14 3.77,5.2l2.24 1.28c0.46,0.27 1.92,0.91 2.38,1.18l9.57 6.7c0.25,-11.38 -1.14,-5.36 3.78,-7.37l3.53 10.8c3.34,8 -1.03,0.9 6.38,5.54 0,3.66 -0.3,7.15 0.63,10.14 3.46,11.08 -0.66,2.07 4.62,7.07 1.46,-7.95 3.04,-36.63 0.82,-40.99 0,11.77 -0.7,1.22 3.7,5.82 -0.1,-18.55 -0.7,-37.06 -0.87,-55.65 -0.21,-24.18 2.9,-25.8 8.56,-45.25 6.46,-34.77 35.51,-71.62 63.87,-91.42 14.01,-9.78 18.38,-14.88 33.25,-4.17 21.22,15.29 37.06,29.34 53.98,48.34 9.51,10.69 30.08,43.34 32.3,57.53 1.07,6.85 0.95,6.04 -1.88,9.26 0.14,8.06 -3.18,20.81 -4.07,31.02 -0.96,10.99 -2.27,22.88 -2.19,33.42 2.79,-1.57 2.67,-0.25 5.45,-2.33 2.48,-4.34 3.43,-4.65 7.48,-7 -1.62,-11.94 -1.38,-0.86 -4.71,-11.45 5.57,-9.04 11.24,-15.38 16.47,-25.69 5.6,-11.03 -1.19,-19.84 -5.72,-29.14 -16.58,-34.03 -39.26,-70.43 -64.87,-96.71 -5.33,-5.47 -34.45,-30.9 -46.21,-32.3 -14.91,-1.78 -69.29,54.89 -82.89,75.2 -39.99,59.73 -36.36,68.03 -10.89,108.65 -4.01,8.81 -6.23,1.83 -6.34,10.64 -0.07,5.5 2.29,4.6 4.51,10.98 -47.58,-5.19 -92.17,-64.98 -104.03,-71.73z"/>
   <path class="fil8" d="M438.97 193.9c1.47,3.66 2.29,6.53 0.91,11.65 -5.76,0.26 -10.66,1.54 -11.07,-4.33 -0.5,-7.1 3.55,-7.81 10.16,-7.31zm-49.54 -0.45l8.15 0.42 1.78 10.29 -10.16 0.17 0.22 -10.88zm-22.35 -3.68c-5.72,-9.99 -6.52,-15 3.44,-20.62 7.79,-4.39 17.65,-9.31 30.18,-6.91 2.72,4.52 4.32,9.01 3.19,16.55 -7.09,4.78 -27.15,12.08 -36.81,10.98zm92.9 -27.68c0.94,10.25 -0.53,13.02 -5.18,18.74 -16.78,0.76 -38.17,-1.78 -35.66,-21.02 1.48,-11.34 7.33,-5.74 18.03,-4.3 10.74,1.45 13.45,2.95 22.81,6.57zm-84.51 -20.74c-5.37,1.87 -5.84,3.61 -8.64,7.38 -9.4,12.64 -13.44,11.08 -14.53,29.81 5.28,-0.2 -1.49,1.76 5.35,-0.68 6.4,-2.28 0.5,-1.79 0.46,-1.9l-7.24 5.73c6.12,3.14 2.21,3.89 3.53,20.46l1.1 9.62 3.9 7.2c8.47,-3.64 8.55,-2.74 17.56,-0.57 0.7,9.52 -4.39,6.88 -6.05,12.07 -2.57,8 5.34,6.9 11.57,5.41l9.27 1.83c-1.35,-8.93 -1.27,-2.61 -4.24,-8.92 12.9,-10.08 8.29,-1.03 17.99,-12.39 5.9,-6.9 0.22,-2.58 7.88,-5.88 -0.13,9.03 1.19,8.72 -5.42,13.48 -1.62,1.16 -3.79,2.18 -5.63,3.37l-5.38 4.26c3.21,7.4 -0.88,0.18 4.32,5.54 6.61,6.81 7.89,6.75 16.64,8.84 -0.17,-8.29 23.36,-17.54 31.78,-9.45l11.05 0.73c4.61,-14.46 -2.41,-6.15 -5.14,-19.17l16.78 2.37 0.14 -40.93c3,-2.31 -2.8,-1.61 5.45,-1.92 -5.76,-9.2 4.35,-5.36 -5.84,-8.92l-4.49 1.36c-1.87,-1.97 -2.13,-2.99 -3.7,-4.67 -3.4,-3.61 -0.53,-1.43 -3.95,-3.33l-5.45 -5.92c-32.53,-23.15 -30.71,-35.68 -72.99,-3.19 -14.52,11.16 -11.24,16.42 -25.23,19.38 0.91,-19.55 14.92,-21.38 19.15,-31.02z"/>
   <path class="fil9" d="M522.25 676.65c53.45,-1.49 76.78,-25.31 95.52,-56.03 9.98,-16.36 17.03,-32.1 26.28,-49.12 9.52,-17.51 19.49,-25.77 39.83,-34.09 -3.47,-3.88 0.73,-2.95 -7,-1.84l-14.62 7.47c-15.49,8.32 -26.15,29.14 -28,31.17l-11.26 12.07c-0.23,0.28 -0.58,0.69 -0.81,0.98 -0.23,0.29 -0.56,0.71 -0.8,1.01l-8.89 9.09c-2.41,2.43 -4.76,7.85 -19.68,23.39 -4.68,4.87 -17.76,18.67 -23.57,21.18 -0.38,0.16 -0.84,0.37 -1.24,0.52 -0.4,0.15 -0.86,0.35 -1.27,0.48 -23.37,7.45 -30.91,-15.78 -34.68,-30.32 -4.14,-15.94 -11.16,-19.2 -12.09,-46.96 -0.36,-10.6 -0.57,-19.77 -1.62,-30.43 -0.62,-6.34 -1.41,-19.29 -2.66,-25.67 -2,-10.19 -5.87,-48.07 -8.25,-48.13 -0.61,7.13 2.17,16.34 2.14,25.19 -0.14,42.39 0.01,34.41 6.22,77.35 1.24,8.61 0.7,16.59 1.51,25.09 1.07,11.06 3.53,10.91 3.59,24.99 0.12,26.93 -3.9,27.27 6.22,39.29 0.25,0.29 0.57,0.73 0.81,1.01l4.78 4.66c-2.29,1.96 -3.82,4.92 -4.92,8.75 -0.74,2.56 -1.05,1.19 -0.44,4.51l1.31 1.12c-14.08,0 -2.29,-0.62 -6.44,3.27z"/>
   <path class="fil10" d="M96.25 10.76l0.11 -1.78c-3.18,40.7 6.41,29.39 10.68,46.96 -16.5,0.64 -13.73,-9.36 -25.46,-8.72 -4.83,11.28 4.62,15.85 12.22,19.41 18.75,8.78 8.1,3.92 19.19,16.86 9.1,10.6 12.3,3.19 18.93,17.31 4.08,8.68 7.72,17.12 11.98,24.89l-3.06 5.23c7.53,0.26 8.23,7.27 11.1,14.12 2.65,6.32 5.35,10.47 6.49,16.41 7.03,4.78 2.24,1.44 4.31,0.15 -0.4,-4.75 -0.78,-9.18 -1.39,-13.87 -1.61,-12.47 0.13,-10.21 1.48,-12.02 -1.82,-6.44 -13.29,-28.57 -16.7,-35.05 -7.25,-13.77 -4.64,-9.13 -0.94,-20.69 3.51,-10.94 -1.43,-14.24 1.42,-25.79 7.7,-1.98 14.12,-0.88 20.81,-5.71 -0.05,-10.94 -9.25,-14.44 -17.62,-9.16 -7.52,4.74 -5.09,13.91 -17.23,13.68 -9.51,-15.26 1.69,-38.1 -4.3,-47.93 -6.91,0.31 -10.7,1.48 -11.47,16.35 -0.45,8.67 2.21,21.97 -1.1,27.39 -2.76,-2.2 -0.74,0.36 -2.43,-3.14 -0.94,-1.95 -0.8,-1.97 -1.43,-4.11 -1.25,-4.21 -1.44,-5.37 -2.83,-9.57 -2.59,-7.81 -2.91,-13.99 -2.29,-22.49 -4.09,-6.89 -1.89,-2.46 -5.01,-5.55 -1.69,2.52 -2.93,3.65 -5.46,6.8z"/>
   <path class="fil8" d="M698.47 5.21c3.04,16.27 8.71,34.26 -0.99,48.58 -14.45,-0.98 -10.23,-21.41 -32.33,-14.47 -4.8,19.51 4.98,8.21 19.46,16.57 1.51,11.09 -3.43,12.49 -0.57,22.09 3.13,10.49 7.62,7.47 1.68,19.68 -5.28,10.84 -14.08,26.07 -16.77,35.18l-0.25 16.06c-0.26,1.68 -1.29,7.24 -1.34,7.97 -0.69,11.63 -0.5,5.45 2.16,8.37 2.07,-6.72 11.61,-31.27 17.37,-35.32 -0.25,-10.98 6.09,-16.19 9.88,-26.41 8.02,-21.56 8.11,-6.35 18.43,-17.52 8.97,-9.7 0.28,-10.42 17.62,-18.24 12.43,-5.6 16.11,-6.37 15.38,-21.95 -11.52,3.5 -11.94,10.99 -25.33,11.43 3.1,-22.95 17.24,-5.59 7.86,-57.22l-4.09 0c-3.37,20.25 -4.16,39.99 -14.08,54.89 -6.49,-14.09 13.49,-46.86 -14.09,-49.67z"/>
   <path class="fil11" d="M449.7 236.56c2.89,2.57 0.48,1.59 5.17,3.55 1.9,0.8 3.64,0.41 5.59,0.41 5.77,-6.23 3.57,-8.08 2.98,-16.7 9.66,2.01 11.99,2.83 12.31,13.11 0.63,19.44 -15.96,29.57 -31.35,26.18l-7.35 -2.97c-0.24,-0.62 -0.86,-0.54 -1.33,-0.72 -0.48,9.5 2.07,2.47 -2.72,7.63 -8.5,9.14 -41.5,8.84 -40.39,-6.67 -2.68,0.93 -4.55,1.35 -7.55,2l-1.82 5.17c3.71,1.41 4.57,2.99 5.39,7.2 12.18,0.22 10.84,1.14 13.51,5.14l5.95 8.22c0.19,-0.36 0.87,0.62 1.24,0.99 -2.02,1.95 -3.89,4.15 -6.76,3.92 10.24,0.08 6.16,0.48 13.69,-1.9 13.22,-4.18 11.04,1.28 13.15,-4.33 8.95,3.21 2.2,-0.96 5.91,7.29 7.96,-0.24 11.58,0.14 19.09,0.64 7.3,0.49 6.53,-2.03 12.09,-3.3 6.1,-1.4 6.95,1.71 13.37,-1.24 8.38,-3.86 -0.06,-3.93 14.71,-4.07 0.73,-3.56 0.83,-3.16 1.81,-4.71l-10.15 5.29c-4.07,-6.28 -4.21,-4.85 -7.08,-5.49 0.58,-1.93 2.05,-4.29 2.24,-4.82 3.38,-9.58 -1.94,-0.97 -0.8,-11.63 0.03,-0.35 0.23,-0.88 0.29,-1.23 3.01,-16.99 -6.21,-7.89 0.91,-20.92 2.38,-4.35 4.3,-4.89 4.55,-10.93 -8.79,-3.49 -9.76,-11.33 -4.94,-18.88 4.34,-6.8 10.83,-8.86 18.12,-9.12l-21.54 -26c-8.25,0.31 -2.45,-0.4 -5.45,1.92l-0.14 40.93 -16.78 -2.37c2.73,13.01 9.75,4.71 5.14,19.17l-11.05 -0.73z"/>
   <path class="fil12" d="M331.8 206.14c4.53,2.3 6.97,-3.68 9.18,-7.69 1.49,-2.7 2.39,-4.61 3.95,-6.85l5.99 -5.87c3.87,5.19 2.63,13.1 3.48,16.41 -1.32,-16.57 2.59,-17.32 -3.53,-20.46l7.24 -5.73c0.04,0.11 5.93,-0.38 -0.46,1.9 -6.84,2.43 -0.07,0.48 -5.35,0.68 1.09,-18.73 5.13,-17.17 14.53,-29.81 2.81,-3.77 3.27,-5.51 8.64,-7.38 8.21,-4.2 12.92,-12.91 21.57,-16.03 11.05,-3.97 22.4,2.27 29.12,5.93 8.23,4.5 15.77,8.52 24.69,12.94 9.46,4.69 14.95,9.13 23.54,13.92l-2.25 10.61c10.19,3.56 0.08,-0.28 5.84,8.92l21.54 26c3.94,2.65 5.82,5.81 8.62,9.17 6.41,7.68 3.25,2.1 5.19,12.87 2.83,-3.21 2.95,-2.41 1.88,-9.26 -2.22,-14.19 -22.79,-46.84 -32.3,-57.53 -16.92,-19.01 -32.76,-33.06 -53.98,-48.34 -14.87,-10.71 -19.24,-5.61 -33.25,4.17 -28.36,19.8 -57.41,56.64 -63.87,91.42z"/>
   <path class="fil13" d="M664.96 588l11.61 -9.08c13.89,-5.76 30.44,-1 43.37,5.57 13.83,7.03 33.13,20.67 31.67,42.19 -3.66,9.76 -45.53,13.53 -45.71,-11.5 6.86,-3.91 9.7,-7.69 17.28,-5.25l-0.05 4.82c-2.02,6 -4.11,2.06 -5.6,10.02 14.86,0.76 19.06,-18.45 6.59,-21.64 -13.75,-3.53 -26.13,6.68 -26.37,18.15 14.27,21.68 38.21,22.42 57.79,11.86 5.56,-29.59 -18.94,-49.26 -41.17,-55.92 -15.55,-4.66 -25.44,-8.82 -40.81,-1.56l-19.66 16.43c-27.47,30.23 -45.34,103.83 -45.39,152.4 1.57,-27.36 8.33,-67.8 17.7,-90.48 6.38,-15.44 20.72,-52.04 35.83,-64.41 2.78,-2.27 0.31,-0.69 2.93,-1.61z"/>
   <path class="fil13" d="M172.84 678.24c-7.64,-16.31 -13.66,-16.55 -24.28,-25.22 -8.53,-6.96 -19.96,-12.31 -30.98,-17.52 -79.3,-37.53 -53.59,-100.68 0.03,-85.77 24.21,6.73 22.76,32.59 -0.27,32.8 -11.93,0.11 -7.3,-5.34 -18.8,-7.24 3.58,22.02 29.82,13.09 35.5,8.89 14.28,-10.56 8.13,-26.99 -3.9,-34.79 -30.04,-19.49 -83.06,-1.08 -63.38,48.73 6.09,15.42 27.39,30 42.2,37.14 17.96,8.66 41.97,18.85 54.9,34.65l9 8.34z"/>
   <path class="fil14" d="M273.18 1041.13c5.08,15.22 30.68,7.36 46.36,5.74l6.51 -3.61c-4.83,-6.57 -10.32,-6.24 -16.05,-16.56 -3.89,-7.02 -5.23,-14.66 -9.43,-20.72 -13.13,-1.42 -16.97,1.4 -21.45,10.47 -3.54,7.16 -6.88,16.41 -5.94,24.68z"/>
   <path class="fil15" d="M449.7 236.56c-8.42,-8.09 -31.95,1.16 -31.78,9.45l0.67 3.96c2.16,3.81 6.79,6.13 11.87,8.19l5.27 1.25c0.47,0.19 1.09,0.1 1.33,0.72l7.35 2.97c15.39,3.39 31.98,-6.74 31.35,-26.18 -0.33,-10.27 -2.65,-11.1 -12.31,-13.11 0.59,8.62 2.79,10.47 -2.98,16.7 -1.95,0 -3.7,0.39 -5.59,-0.41 -4.7,-1.97 -2.28,-0.98 -5.17,-3.55z"/>
   <path class="fil16" d="M375.48 141.35c-4.23,9.64 -18.24,11.48 -19.15,31.02 13.98,-2.96 10.71,-8.22 25.23,-19.38 42.28,-32.49 40.46,-19.96 72.99,3.19l5.45 5.92c3.43,1.9 0.55,-0.28 3.95,3.33 1.57,1.68 1.83,2.69 3.7,4.67l4.49 -1.36 2.25 -10.61c-8.59,-4.79 -14.08,-9.23 -23.54,-13.92 -8.92,-4.42 -16.46,-8.44 -24.69,-12.94 -6.72,-3.66 -18.07,-9.9 -29.12,-5.93 -8.65,3.11 -13.36,11.83 -21.57,16.03z"/>
   <path class="fil17" d="M658.56 947.16c1.28,-46.87 2.09,-79.08 27.97,-106.94 12.65,-13.62 32.12,-14.55 35.86,9.11 4.94,31.37 -26.02,25.87 -20.31,2.85 8.79,0.64 0.08,3.92 14.67,6.13 -1.59,-10.52 -5.81,-15.71 -17.47,-15.46 -15,14.84 0.54,40.89 18.62,34.01 9.5,-3.61 10.89,-15.45 10.17,-25.78 -0.96,-13.7 -5.28,-15.62 -9.92,-23.8 -19.16,-3.91 -28.14,1.11 -36.52,11.59 -7.81,9.75 -11.52,15.22 -16.6,30.22 -11.1,32.77 -7.37,46.44 -6.46,78.08z"/>
   <path class="fil17" d="M839.34 462.06l0 -29.04c-5.31,-2.72 -1.08,1.96 -4.54,-6.2 -1.84,-4.33 -0.53,-4.62 -4.25,-8.56 -13.11,-13.88 -40.26,-0.58 -47.62,13.92 -12.99,25.56 11.38,43.7 26.64,22.63 12.25,-16.92 -12.71,-32.44 -18.42,-4.25 10.02,-2.57 2.89,-0.28 8.03,-4.17 3.87,-2.93 -2.54,-1.76 6.04,-4.41 2.71,6.75 -5.54,19.93 -16.54,14.41 -9.81,-16.13 2.21,-26.43 10.56,-33.11 11.48,-9.19 27.38,-9.26 32.46,6.55 5.31,16.49 3.41,27.36 -2.43,43.29 -8.59,23.45 -14.22,22.51 -18.79,33.2 22.64,-18.69 19.92,-40.26 28.85,-44.25z"/>
   <path class="fil13" d="M147.61 825.59c-17.84,7.25 -32.58,-17.41 -24.16,-33.33 10.25,-19.4 29.6,-8.74 39.5,2.57 8.09,9.24 17.92,25.51 25.01,39.56 7.69,15.22 11.64,32.43 19.18,45.67 -2.74,-17.57 -16.58,-46.64 -23.99,-61.99 -5.46,-11.32 -11.17,-18 -16.9,-26.45 -4.29,-6.32 -14.67,-14.96 -27.18,-14.29 -29.11,1.57 -28.97,35.7 -10.94,50.62 28.86,23.88 41.64,-31.91 8.35,-29.74 5,11.28 18.47,9.38 11.13,27.37z"/>
   <path class="fil18" d="M385.05 262.37c3,-0.64 4.87,-1.07 7.55,-2l7.22 -2.02c3.49,-1.95 5.14,-2.27 6.77,-5.19l0.33 -4.03c-9.46,-3.21 -12.91,-3.51 -15.18,-11.42l-9.27 -1.83c-2.25,2.77 -2.65,4.19 -8.42,4.12 -3.8,-0.05 -3.93,-0.97 -6.19,-2.3 -0.39,-0.42 -0.71,-1.79 -0.88,-1.48 -0.17,0.3 -0.63,-1.09 -0.87,-1.43 -6.09,-8.79 1.57,-6.92 -9.81,-5.08 -3.42,6.34 -1.01,22.13 3.22,27.54 2.54,3.25 14.84,9.45 25.52,5.13z"/>
   <path class="fil18" d="M459.99 162.09c-9.36,-3.62 -12.07,-5.12 -22.81,-6.57 -10.71,-1.44 -16.55,-7.04 -18.03,4.3 -2.52,19.24 18.88,21.77 35.66,21.02 4.66,-5.72 6.12,-8.49 5.18,-18.74z"/>
   <path class="fil19" d="M367.09 189.77c9.67,1.1 29.72,-6.2 36.81,-10.98 1.12,-7.53 -0.47,-12.02 -3.19,-16.55 -12.53,-2.4 -22.39,2.52 -30.18,6.91 -9.96,5.62 -9.16,10.63 -3.44,20.62z"/>
   <path class="fil20" d="M499.34 1046.11c13.18,-1.6 30.19,7.69 50.58,1.99l2.95 -10.11c-0.14,-5.81 -1.54,-9.41 -3.13,-13.91 -0.26,-0.74 -2.24,-6.05 -2.43,-6.36 -3.91,-6.33 0.14,-2.29 -6.04,-5.81 2.46,12.96 0.78,1.49 3.43,8.73 1.15,3.16 1.73,-0.12 1.59,6.56 -0.26,12.41 -3.12,0.86 -4.47,13.04 -11.14,-2.17 -12.81,0.69 -22.1,-1.27 -1.46,-4.51 0.4,1.27 2.24,-9.97 1.27,-7.73 2.76,-10.04 1.8,-16.98 -2.83,2.95 -0.81,-0.11 -3.32,5.06 -14.74,30.35 -15.85,16.42 -21.09,29.05z"/>
   <path class="fil13" d="M33.94 480.11c6.4,-8.01 8.19,-6.95 3.91,-21.27 -3.08,-10.29 -6.71,-15.64 -17.59,-11.96 3.96,8.24 5.75,1 11.05,10.8 3.96,7.33 4.18,11.8 0.02,16.5 -15.24,9.78 -50.81,-78.88 -3.71,-73.95 12.25,1.28 16.91,9.78 23.24,20.15 -6.79,-38.73 -71.87,-31.49 -43.93,36.77 2.51,6.13 5.69,10.18 8.59,14.68 4.64,7.19 6.55,9.01 18.42,8.27z"/>
   <path class="fil21" d="M523.75 1012c0.96,6.94 -0.53,9.25 -1.8,16.98 -1.84,11.24 -3.7,5.46 -2.24,9.97 9.3,1.96 10.97,-0.9 22.1,1.27 1.35,-12.18 4.21,-0.63 4.47,-13.04 0.14,-6.68 -0.44,-3.4 -1.59,-6.56 -2.65,-7.24 -0.97,4.23 -3.43,-8.73 1.12,-4.52 -3.34,-5.99 -9.33,-6.26 -6.66,-0.3 -8.89,0.88 -8.19,6.36z"/>
   <path class="fil22" d="M392.6 260.37c-1.11,15.51 31.9,15.8 40.39,6.67 4.79,-5.16 2.25,1.88 2.72,-7.63l-5.27 -1.25c-3.49,4.17 2.31,2.82 -7.58,3.05l-18.09 -0.51c-7.44,-0.81 -3.12,1.59 -4.95,-2.35l-7.22 2.02z"/>
   <path class="fil23" d="M391.74 237.72c2.27,7.91 5.73,8.21 15.18,11.42l-0.33 4.03c4.09,-2.36 2.18,1.52 4.55,-4.25l7.43 1.05 -0.67 -3.96c-8.74,-2.09 -10.02,-2.03 -16.64,-8.84 -5.2,-5.36 -1.11,1.86 -4.32,-5.54l5.38 -4.26c1.83,-1.19 4.01,-2.21 5.63,-3.37 6.61,-4.76 5.28,-4.44 5.42,-13.48 -7.65,3.3 -1.98,-1.02 -7.88,5.88 -9.7,11.36 -5.09,2.31 -17.99,12.39 2.97,6.31 2.88,-0 4.24,8.92z"/>
   <path class="fil24" d="M406.6 253.17c-1.63,2.92 -3.28,3.24 -6.77,5.19 1.84,3.94 -2.49,1.53 4.95,2.35l18.09 0.51c9.89,-0.23 4.09,1.12 7.58,-3.05 -5.07,-2.06 -9.71,-4.38 -11.87,-8.19l-7.43 -1.05c-2.38,5.77 -0.46,1.88 -4.55,4.25z"/>
   <path class="fil25" d="M367.87 237.7c2.26,1.34 2.39,2.26 6.19,2.3 5.77,0.07 6.16,-1.35 8.42,-4.12 -6.23,1.48 -14.14,2.59 -11.57,-5.41 1.67,-5.18 6.75,-2.54 6.05,-12.07 -9,-2.17 -9.09,-3.07 -17.56,0.57l-3.9 -7.2 0.82 9.31 11.95 0.56 -0.4 16.05z"/>
   <path class="fil26" d="M428.81 201.22c0.41,5.87 5.31,4.6 11.07,4.33 1.38,-5.12 0.57,-7.99 -0.91,-11.65 -6.62,-0.5 -10.66,0.22 -10.16,7.31z"/>
   <polygon class="fil26" points="389.21,204.32 399.37,204.15 397.59,193.87 389.43,193.45 "/>
   <path class="fil27" d="M96.25 10.76c2.53,-3.15 3.77,-4.28 5.46,-6.8 3.12,3.09 0.92,-1.34 5.01,5.55l-0.99 -9.51 -7.39 0 -2.09 10.76z"/>
  </g>
 </g>
</svg>
