<?xml version="1.0" encoding="UTF-8"?>
<!DOCTYPE svg PUBLIC "-//W3C//DTD SVG 1.1//EN" "http://www.w3.org/Graphics/SVG/1.1/DTD/svg11.dtd">
<!-- Creator: CorelDRAW 2020 (64-Bit) -->
<svg xmlns="http://www.w3.org/2000/svg" xml:space="preserve" width="47.2081mm" height="86.1004mm" version="1.1" style="shape-rendering:geometricPrecision; text-rendering:geometricPrecision; image-rendering:optimizeQuality; fill-rule:evenodd; clip-rule:evenodd"
viewBox="0 0 17240.19 31443.48"
 xmlns:xlink="http://www.w3.org/1999/xlink"
 xmlns:xodm="http://www.corel.com/coreldraw/odm/2003">
 <defs>
  <style type="text/css">
   <![CDATA[
    .fil5 {fill:#29304E}
    .fil26 {fill:#2D3352}
    .fil25 {fill:#332D4B}
    .fil32 {fill:#34334B}
    .fil2 {fill:#664975}
    .fil6 {fill:#664A77}
    .fil17 {fill:#70E0C8}
    .fil11 {fill:#72517E}
    .fil0 {fill:#7E5989}
    .fil4 {fill:#7F598A}
    .fil9 {fill:#926B9B}
    .fil18 {fill:#92F9E5}
    .fil19 {fill:#956656}
    .fil28 {fill:#962329}
    .fil8 {fill:#9B6652}
    .fil20 {fill:#9C6954}
    .fil29 {fill:#B24C46}
    .fil24 {fill:#B38B73}
    .fil22 {fill:#E8BAA5}
    .fil16 {fill:#EB9D73}
    .fil27 {fill:#EBA479}
    .fil31 {fill:#EBFAF9}
    .fil30 {fill:#EE9B6F}
    .fil21 {fill:#F6E5CD}
    .fil23 {fill:#F7E8D9}
    .fil7 {fill:#F9E6CE}
    .fil13 {fill:#FAEEDD}
    .fil12 {fill:#FBE6CD}
    .fil14 {fill:#FBECDA}
    .fil10 {fill:#FCC394}
    .fil15 {fill:#FDC59A}
    .fil33 {fill:#FDE9D1}
    .fil1 {fill:#FDEFDC}
    .fil3 {fill:#FEEFDE}
   ]]>
  </style>
 </defs>
 <g id="Layer_x0020_1">
  <metadata id="CorelCorpID_0Corel-Layer"/>
  <g id="_2608558731936">
   <path class="fil0" d="M15512.92 30243.12c103.75,164.12 126.87,657.35 93.42,794.56 -48.68,199.87 -12.23,68.8 -61.32,141.95l-734.04 111.93c-7.34,-246.69 -59.27,-314.8 -156.52,-520.55 -110.54,-234.31 -107.15,-257.02 -407.52,-259.87 -67.05,200.16 -39.19,400.88 -202.5,539.17 -234.02,198.26 -302.53,-9.64 -430.89,296.58l939.06 20.27c-60.91,38.89 -12.09,24.36 -126.43,49.37 -67.89,14.94 -144.98,21.07 -214.99,23.66 -849.37,30.71 -559.19,-331.27 -2765.63,-147.14 -1126.77,93.96 -2730.82,-116.83 -3167.05,78.04l55.07 -137.61c-341.06,-42.29 -714.32,-190.12 -1029.27,-75.19 15.63,-604.47 -16.32,-1186.19 17.42,-1834.16 23.26,-446.56 132.97,-1317.11 37.94,-1706.7l78.85 0 33.45 438.13c257.57,218.39 680.76,203.01 983.18,204.51 740.54,3.54 1449.17,-1070.17 1788.58,-1642.94 268.71,-453.65 522.45,-997.97 797.95,-1553.87 865.66,-1747.1 847.98,-1471.88 1325.81,-991.73 652.86,655.85 1797.02,3118.22 2068.18,3982.28 56.97,181.39 81.48,337.48 183.84,505.03 372.46,609.47 216.93,655.85 462.23,1486.02 53.28,180.19 262.58,891.62 392.18,979.64 102.91,-145.38 48.79,141.95 72.86,-209.7 18.11,-264.77 -127.12,-224.52 -33.85,-571.68z"/>
   <path class="fil0" d="M7666.73 7279.15c90.68,-18.22 32.9,-47.33 208.71,-6.14 290.73,68 64.86,-28.81 197.46,110.4l-270.06 -57.77c-35.35,294.82 -51.68,196.91 -136,387.4l-249.94 714.61c-175.15,477.02 -434.73,1964.53 -481.51,2527.77 -37.25,450.51 -81.33,299.97 -138.7,579.42l-210.5 2113.86c-57.66,469.68 -214.19,458.14 -787.33,685.91 -364.98,145.09 -2273.12,348.25 -2760.59,306.91l25.97 -460.18c-48.13,-557.25 173.25,-1727.92 164.81,-2480.19 -23.01,-2059.59 -441.56,-2716 -615.06,-4713.98 -35.9,-412.85 -85.93,-794.56 -108.79,-1216.65 -45.94,-850.69 8.69,-617.91 -203.71,-1133.97l144.14 30.2c-4.49,-90.42 -16.73,-133.26 11.98,-214.7 77.49,-220.98 -99.41,21.62 105.8,-134.25 65.95,105.4 117.74,148.63 243.26,248.44 139.54,110.98 199.21,92.61 233.21,228.21 352.6,185.99 710.12,508.02 1078.35,763.26 332.07,230.22 679.52,465.04 1056.33,669.84 477.97,259.73 1911.51,995.52 2492.17,959.77l0 91.81z"/>
   <path class="fil1" d="M10883.81 8822.54c163.32,420.19 246.25,691.35 671.59,771.15l-144.14 1134.77 -295.63 1204.16c-106.86,119.78 -108.5,188.99 -205.46,328.79 -92.61,133.55 -174.6,177.49 -164.81,404.82 12.78,299.86 130.01,273.2 128.66,1004.65 -5.44,952.98 -181.68,1996.63 -587.75,2799.22 -353.55,698.55 -245.7,2311.29 -256.73,3175.74 -7.34,579.57 -872.85,5235.33 -1064.73,5756.29l-34.84 0.95c-64.31,-381.01 -25.56,-989.13 -100.76,-1480.03 -64.16,-420.05 -161.82,-878.73 -253.99,-1292.54 -185.23,-831.26 -383.75,-1695.42 -631.79,-2499.51l-12.64 -347.3c117.48,15.67 220.69,116.02 350.41,63.51 16.32,-6.5 96.16,-64.31 157.87,-86.48 -62.41,479.76 -69.61,120.77 -11.39,598.19 294.13,-239.71 204.11,10.48 347.41,265.97 12.67,22.61 26.11,37.83 37.4,56.46 11.72,19.43 23.96,41.19 41.08,57.37 49.48,-384.7 40.65,-579.42 -91.92,-897.91l230.07 0 0.15 -276.01 -230.51 -3.94 185.23 -168.1c181.79,68.55 1.9,48.97 275.5,102.69 0,-435.42 -85.53,-1177.1 49.08,-1572.39 106.89,-314 150.53,-1286.15 -35.1,-1537.29 -217.99,-294.82 -129.02,-103.35 -129.02,-919.93l69.2 0c10.48,408.11 115.18,103.35 115.18,575.62 137.46,-56.17 217.04,-226.02 249.94,-391.64 73.4,-370.02 -63.65,-87.98 -90.17,-494.84l-28.56 -445.21c-2.59,-11.43 -10.19,-27.06 -12.53,-37.1 -31.66,-135.2 59.56,-318.78 -4.2,-515.66 -71.8,-221.67 -27.21,103.61 -67.45,-216.23 -66.36,-527.45 -1.21,-1651.93 -1.21,-2204.94 -235,85.53 -122.96,177.05 -230.22,230.22l91.92 -507.37c82.68,-256.73 95.86,-367.82 437.87,-367.82l-37.69 54.38c-3.14,6.28 -13.88,24.21 -17.68,32.36l-104.7 299.31c-62.96,182.74 -89.47,-160.32 -51.27,217.04 13.59,134.61 19.32,86.22 96.16,202.76 206.96,-73.44 210.9,-224.38 305.27,-380.1 112.74,-185.88 201.26,-175 316.3,-391.09 -27.06,-351.79 -76.44,-91.92 -114.09,-408.36 -15.63,-130.52 -1.1,-370.53 -1.1,-512.77 3.4,-0.55 8.29,1.21 9.13,5.04l221.09 75.45c0,-233.47 -19.17,-551.41 -3.54,-773.74 32.5,-464.53 198.56,-73.29 130.16,-549.91 -196.22,79.28 -62.96,29.91 -163.86,137.2 -225.58,239.6 127.42,2.85 -77.79,104.45l24.91 -1036.46 -416.14 0.26c0,797.7 266.41,12.23 217.18,867.16 -10.19,176.94 -8.58,83.78 13.04,284.23l-69.35 0c-94.77,-343.5 -74.5,-81.07 0,-460.58 -155.98,47.99 -116.39,46.09 -147.54,62.56 -128.48,67.45 57.66,-14.97 -82.68,52.62 -7.74,-304.87 -21.73,-295.48 -276.01,-345.4 0,488.19 92.18,439.22 235.62,666.99 106.64,169.3 100.65,178.69 339.96,184.68l-529.79 69.35c0,-71.69 4.49,-136.14 -8.55,-207.1 -50.58,-274.96 -106.6,-369.76 -106.6,-713.92 -560.68,0 -506.42,28.16 -506.42,575.62l-184.39 0c173.5,-129.21 115.18,-206.3 115.18,-495.13 -110.14,-77.64 -244.64,-68.95 -195.71,-242.05 133.41,151.08 168.25,103.64 437.32,103.64 -64.97,-184.94 -201.77,-298.22 -437.58,-321.88 16.73,-9.39 35.9,-34 36.15,-45.14l-35.9 -185.08c-368.23,10.48 -281.6,-3.54 -575.33,172.7 -22.31,243.69 191.33,656.4 17.53,805.15 -85.38,73.04 -74.1,-42 -155.83,-137.61 29.36,197.46 65.7,179.35 11.69,339.81l-201.66 258.78c49.52,426.73 -62.81,644.17 266.12,888.67l119.42 83.89c193.77,-85.13 87.43,-26.66 184.53,-166.86 111.49,78.48 141,209.15 89.87,340.91 -79.28,204.51 -162.51,93.02 -389.19,120.08 40.39,157.33 58.47,210.5 57.26,403.07 -32.25,-343.1 50.84,-163.06 -287.63,-230.37 29.8,388.09 -7.34,316.15 229.67,403.07l-57.63 576.13c-42.18,71.14 -69.64,79.58 -149.33,114.38 2.05,319 129.32,121.17 59.82,328.13 -47.44,140.89 -138.26,-55.07 -186.43,-75.05 -102.8,481.77 82.02,1659.38 -34.4,2245.08l230.22 -115.07c-26.91,646.62 121.57,80.12 258.78,508.46l-5.55 165.07c126.32,66.9 17.27,36.99 230.33,63.36l26.81 -1139.78 166.97 185.59c-198.37,81.58 -101.56,440.46 -101.56,850.43 178.29,-64.86 89.62,-202.61 245.45,-179.6 13.73,2.01 116.39,37.91 145.79,41.6l69.2 1243.56c-220.83,60.91 -223.28,75.89 -230.22,345.4l-69.35 0c-47.48,-172.01 -26.51,-96.01 -115.04,-230.22l-218.79 92.18c0,-78.99 -3.29,-91.92 13.18,-168.61 2.45,-11.14 8.29,-28.16 10.99,-39.55 2.74,-11.28 10.08,-27.35 12.78,-38.49l19.87 -186.29c-40.24,-152.72 -70.45,-186.18 -206.41,-252.13 -122.52,47.58 -131.36,66.65 -197.06,211.59 -6.1,13.48 -12.09,28.96 -16.58,42.84l-50.43 586.07c-11.83,111.93 -0.55,300.26 -0.55,420.19 -146.74,-187.64 -129.86,-30.46 -157.76,-354.24l-181.25 -1381.97c-26.66,-345.55 -5.3,198.26 -23.66,-233.21 -14.13,-330.58 61.06,-192.57 65,-569.92l-95.32 -1850.15c-4.24,-20.41 -11.83,-39.73 -15.92,-56.17 -3.94,-16.47 -10.08,-37.8 -17.53,-55.91 0,127.16 10.74,286.53 7.85,407.96 -5,211.74 -60.22,327.18 -113.94,397.48 28.96,-1059.72 105.94,-2047.91 237.71,-3080.42 62.56,-489.95 129.57,-980.7 236.21,-1447.67 99.41,-435.02 255.49,-873 348.25,-1286.15 -132.6,-139.21 93.27,-42.4 -197.46,-110.4 -175.81,-41.19 -118.03,-12.09 -208.71,6.14l0 -91.81 381.15 53.43 403.72 -846.89c71.25,-119.13 7.6,-32.9 86.08,-105.25l28.27 131.62c190.92,-40.79 314.84,-223.83 843.93,55.91 319.84,169.16 544.21,-31.3 909.59,934.86 174.2,460.88 117.63,554 474.17,778.67 -44.48,215.5 -83.92,484.61 90.17,632.85z"/>
   <path class="fil2" d="M12938.11 19551.47c100.47,187.64 84.43,397.48 84.69,611.78 0.15,194.87 7.23,385.79 -3.94,578.73 72.24,929.86 -64.46,1635.75 -45.94,2498.45 16.58,-7.89 35.9,-20.01 47.33,-28.16l119.53 -90.86c29.91,-29.07 68.26,-89.33 99.92,-132.42 94.26,-127.96 128.26,-134.76 170.4,-298.91 232.52,-905.65 229.27,-339.01 481.8,-1370.14 49.08,-200.31 0.26,-51.82 53.57,-161.42l57.23 -90.02c45.69,-98.6 64.75,-306.25 157.87,-410.41 171.09,1585.28 462.89,3212.33 690.95,4799.66 119.67,832.76 755.52,4231.92 661.41,4785.38 -93.27,347.15 51.97,306.91 33.85,571.68 -24.07,351.65 30.06,64.31 -72.86,209.7 -129.61,-88.01 -338.9,-799.45 -392.18,-979.64 -245.3,-830.16 -89.77,-876.54 -462.23,-1486.02 -102.36,-167.55 -126.87,-323.64 -183.84,-505.03 -271.16,-864.05 -1415.32,-3326.42 -2068.18,-3982.28 -477.82,-480.16 -460.15,-755.37 -1325.81,991.73 -275.5,555.9 -529.24,1100.22 -797.95,1553.87 -339.41,572.77 -1048.04,1646.48 -1788.58,1642.94 -302.42,-1.5 -725.61,13.88 -983.18,-204.51l-33.45 -438.13 6.68 -750.51c347.01,138.7 95.46,492.14 937.06,548.16l183.69 25.56c121.72,238.11 -20.78,241.25 345.4,192.68 213.09,-348.36 -46.34,-133.11 284.49,-812.63 370.82,-271.56 1224.25,-1973.52 1242.21,-2595.08 327.73,-334.52 1069.07,-3924.06 1214.71,-4658.11 213.79,-1077.55 276.2,-1531.7 264.62,-2685.39 -4.46,-451.6 -97.76,-2556.48 74.68,-2784.1 96.41,389.99 -8.58,873.4 -23.96,1287.35 -16.73,448.31 15.37,878.59 27.35,1324.05 11.69,435.68 65,893.96 5.3,1324.05 -101.45,732.44 140.34,2860.14 223.97,3575.16 65.11,555.75 90.28,1892.19 543.67,2053.2 298.88,-458.8 165.62,-3355.53 169.71,-4110.35z"/>
   <path class="fil3" d="M7943.44 20131l-201.41 -828.12c-67.16,388.24 -37.65,771.15 -45.54,1151.9l-65 353.44c-127.12,-494.73 53.32,-1103.91 39.44,-1625.27l-524.9 -4343.56c177.34,-379.95 75.6,-1173.41 104.7,-1641.74 53.72,-70.3 108.94,-185.74 113.94,-397.48 2.89,-121.43 -7.85,-280.8 -7.85,-407.96 7.45,18.11 13.59,39.44 17.53,55.91 4.09,16.43 11.69,35.75 15.92,56.17l95.32 1850.15c-3.94,377.36 -79.14,239.35 -65,569.92 18.37,431.48 -2.99,-112.33 23.66,233.21l181.25 1381.97c27.9,323.78 11.03,166.6 157.76,354.24 0,-119.93 -11.28,-308.26 0.55,-420.19l50.43 -586.07c4.49,-13.88 10.48,-29.36 16.58,-42.84 65.7,-144.95 74.54,-164.01 197.06,-211.59 135.96,65.95 166.16,99.41 206.41,252.13l-19.87 186.29c-2.7,11.14 -10.04,27.21 -12.78,38.49 -2.7,11.39 -8.55,28.41 -10.99,39.55 -16.47,76.69 -13.18,89.62 -13.18,168.61l218.79 -92.18c88.52,134.21 67.56,58.21 115.04,230.22l69.35 0c6.94,-269.51 9.39,-284.49 230.22,-345.4l-69.2 -1243.56c-29.4,-3.69 -132.05,-39.59 -145.79,-41.6 -155.83,-23.01 -67.16,114.74 -245.45,179.6 0,-409.97 -96.81,-768.85 101.56,-850.43l-166.97 -185.59 -26.81 1139.78c-213.06,-26.37 -104.01,3.54 -230.33,-63.36l5.55 -165.07c-137.2,-428.34 -285.69,138.15 -258.78,-508.46l-230.22 115.07c116.42,-585.7 -68.4,-1763.31 34.4,-2245.08 48.17,19.98 138.99,215.94 186.43,75.05 69.5,-206.96 -57.77,-9.13 -59.82,-328.13 79.69,-34.8 107.15,-43.24 149.33,-114.38l57.63 -576.13c-237.01,-86.92 -199.87,-14.97 -229.67,-403.07 338.46,67.31 255.38,-112.74 287.63,230.37 1.21,-192.57 -16.87,-245.74 -57.26,-403.07 226.68,-27.06 309.9,84.43 389.19,-120.08 51.13,-131.76 21.62,-262.43 -89.87,-340.91 -97.11,140.2 9.24,81.73 -184.53,166.86l-119.42 -83.89c-328.93,-244.5 -216.6,-461.94 -266.12,-888.67l201.66 -258.78c54.01,-160.47 17.68,-142.35 -11.69,-339.81 81.73,95.61 70.45,210.64 155.83,137.61 173.8,-148.74 -39.84,-561.45 -17.53,-805.15 293.73,-176.24 207.1,-162.22 575.33,-172.7l35.9 185.08c-0.26,11.14 -19.43,35.75 -36.15,45.14 235.81,23.66 372.61,136.95 437.58,321.88 -269.08,0 -303.92,47.44 -437.32,-103.64 -48.94,173.1 85.57,164.41 195.71,242.05 0,288.83 58.32,365.93 -115.18,495.13l184.39 0c0,-547.46 -54.27,-575.62 506.42,-575.62 0,344.16 56.02,438.97 106.6,713.92 13.04,70.96 8.55,135.41 8.55,207.1l529.79 -69.35c-239.31,-5.99 -233.32,-15.37 -339.96,-184.68 -143.45,-227.77 -235.62,-178.8 -235.62,-666.99 254.29,49.92 268.27,40.54 276.01,345.4 140.34,-67.6 -45.8,14.83 82.68,-52.62 31.15,-16.47 -8.44,-14.57 147.54,-62.56 -74.5,379.51 -94.77,117.08 0,460.58l69.35 0c-21.62,-200.46 -23.23,-107.29 -13.04,-284.23 49.23,-854.92 -217.18,-69.46 -217.18,-867.16l416.14 -0.26 -24.91 1036.46c205.2,-101.6 -147.79,135.16 77.79,-104.45 100.9,-107.29 -32.36,-57.92 163.86,-137.2 68.4,476.62 -97.65,85.38 -130.16,549.91 -15.63,222.33 3.54,540.27 3.54,773.74l-221.09 -75.45c-0.84,-3.83 -5.73,-5.59 -9.13,-5.04 0,142.24 -14.53,382.25 1.1,512.77 37.65,316.44 87.03,56.57 114.09,408.36 -115.04,216.09 -203.56,205.2 -316.3,391.09 -94.37,155.72 -98.31,306.65 -305.27,380.1 -76.84,-116.53 -82.57,-68.15 -96.16,-202.76 -38.2,-377.36 -11.69,-34.29 51.27,-217.04l104.7 -299.31c3.8,-8.14 14.53,-26.07 17.68,-32.36l37.69 -54.38c-342.01,0 -355.19,111.09 -437.87,367.82l-91.92 507.37c107.26,-53.17 -4.78,-144.69 230.22,-230.22 0,553.02 -65.15,1677.49 1.21,2204.94 40.24,319.84 -4.35,-5.44 67.45,216.23 63.76,196.88 -27.46,380.46 4.2,515.66 2.34,10.04 9.93,25.67 12.53,37.1l28.56 445.21c26.51,406.86 163.57,124.82 90.17,494.84 -32.9,165.62 -112.48,335.47 -249.94,391.64 0,-472.27 -104.7,-167.52 -115.18,-575.62l-69.2 0c0,816.58 -88.96,625.11 129.02,919.93 185.63,251.14 141.99,1223.3 35.1,1537.29 -134.61,395.29 -49.08,1136.96 -49.08,1572.39 -273.6,-53.72 -93.71,-34.15 -275.5,-102.69l-185.23 168.1 230.51 3.94 -0.15 276.01 -230.07 0c132.57,318.49 141.4,513.21 91.92,897.91 -17.13,-16.18 -29.36,-37.94 -41.08,-57.37 -11.28,-18.62 -24.72,-33.85 -37.4,-56.46 -143.3,-255.49 -53.28,-505.69 -347.41,-265.97 -58.21,-477.42 -51.02,-118.43 11.39,-598.19 -61.72,22.17 -141.55,79.98 -157.87,86.48 -129.72,52.52 -232.92,-47.84 -350.41,-63.51l12.64 347.3z"/>
   <path class="fil0" d="M14023.11 9196.76c477.97,769.39 1020.94,1904.71 1329.49,2852.65 191.73,588.8 149.18,1254.99 67.45,1898.62 -57.37,451.45 -83.48,1521.08 -309.1,1835.47l-54.23 -175.15c-5.19,-12.23 -20.41,-32.5 -28.01,-50.03 -17.97,476.22 -6.28,507.48 -191.47,857.22l-575.62 1907.45c-23.37,217.29 10.74,173.5 -78.88,324.59l-287.19 401.02c-122.23,198.52 -102.8,301.62 -179.64,506.53 -78.74,209.95 -205.61,381.15 -280.65,581.87 -166.31,444.95 44.33,180.59 -278.1,647.02 -105.65,-15.92 -70.7,-2.19 -138.3,-42.03 11.17,-192.93 4.09,-383.86 3.94,-578.73 -0.26,-214.3 15.78,-424.14 -84.69,-611.78l-72.35 -1800.56c232.78,113.28 254.94,-105.1 412.96,-534.83l571.42 -1551.72c102.25,-302.82 121.28,-602.24 202.46,-900.21 137.2,-502.84 209,-1373.94 -25.02,-1900.22 -194.47,-437.32 -582.3,-384.95 -1207.01,-363.88 -301.87,10.19 -240.55,11.03 -407.92,153.13l-3.29 -339.01 66.5 -2506.56c178.29,-36.59 716.37,-203.05 819.72,-341.75 159.08,-213.49 393.53,-558.35 187.24,-767.49 70.45,-58.58 -117.34,-85.24 210.1,-63.91l330.17 562.29z"/>
   <path class="fil4" d="M15402.52 3756.77c-133.55,-22.97 -52.08,-167.66 -360.08,319.69 -106.09,167.95 -214.19,283.94 -298.07,443.16 -283.14,537.28 -248.59,564.34 -661.55,906.6l18.08 -251.69c-84.87,-742.48 -528.99,-1918.59 -870.3,-2383.38 -344.71,-725.61 -1550.62,-2421.87 -2410.98,-1431.75l-59.97 72.05c-107.15,-113.69 92.07,-112.88 -178.14,-40.94 -8.98,2.34 -166.31,98.2 -183.15,109.19l-2189.49 1608.83c229.01,-583.51 1184.55,-1443.18 1678.33,-1888.13 433.63,-390.69 1537,-1419.81 2165.79,-1186.3 614.62,228.17 1714.48,977.01 2184.16,1331.94 342.01,258.49 652.86,447.8 829.76,954.18 141,403.47 273.31,979.78 335.61,1436.53z"/>
   <path class="fil5" d="M2301.5 4636.56c212.4,516.06 157.76,283.28 203.71,1133.97 22.86,422.09 72.89,803.8 108.79,1216.65 173.5,1997.98 592.06,2654.39 615.06,4713.98 8.44,752.27 -212.95,1922.94 -164.81,2480.19 -129.61,150.94 -143.59,540.53 -197.32,740.43 -63.36,236.46 -190.92,537.28 -235.41,750.92l-247.6 -13.73c-289.38,-1687.57 14.83,-3914.82 -193.66,-5756.72 -101.56,-897.36 -183.04,-1841.35 -237.82,-2748.75 -29.36,-487.5 -60.11,-958.42 -84.87,-1441.28 -22.28,-434.87 7.49,-1035.37 -42.84,-1428.24 223.43,78.19 300.81,233.76 476.76,352.6z"/>
   <path class="fil6" d="M7250.74 13197.66c-29.11,468.33 72.64,1261.79 -104.7,1641.74 -258.92,22.68 -798.21,302.42 -1127.98,415.56 -735.54,252.39 -1602,510.76 -2379.18,600.24 -350.81,40.39 -1067.03,141.26 -1254.96,-196.22l247.6 13.73c44.48,-213.64 172.04,-514.45 235.41,-750.92 53.72,-199.91 67.71,-589.5 197.32,-740.43l-25.97 460.18c487.46,41.34 2395.61,-161.82 2760.59,-306.91 573.14,-227.77 729.66,-216.23 787.33,-685.91l210.5 -2113.86c57.37,-279.45 101.45,-128.91 138.7,-579.42 46.78,-563.24 306.36,-2050.76 481.51,-2527.77l249.94 -714.61c84.32,-190.49 100.65,-92.58 136,-387.4l270.06 57.77c-92.76,413.15 -248.84,851.12 -348.25,1286.15 -106.64,466.98 -173.65,957.73 -236.21,1447.67 -131.76,1032.52 -208.75,2020.7 -237.71,3080.42z"/>
   <path class="fil7" d="M12000.07 13228.66l-8 869.35c-172.45,227.63 -79.14,2332.5 -74.68,2784.1 11.58,1153.69 -50.84,1607.85 -264.62,2685.39 -145.64,734.04 -886.99,4323.59 -1214.71,4658.11 -97.36,-368.37 -6.39,-559.59 54.38,-931.36l243 -2174.92c77.93,-433.49 149.99,-635.7 92.21,-1128.64l-218.68 -91.12c110.14,-562.29 36.59,-1232.13 35.5,-1809.25 -1.75,-1019.04 413.26,-1271.17 571.28,-3105.04 49.78,-577.12 213.49,-1122.68 271.96,-1644.04 174.6,-224.08 -70.59,-74.24 217.58,-278.21 120.88,-85.53 177.19,-125.12 347.41,-174.75l-52.62 340.36z"/>
   <path class="fil5" d="M12865.77 17750.91l72.35 1800.56c-4.09,754.82 129.17,3651.55 -169.71,4110.35 -453.39,-161.01 -478.55,-1497.45 -543.67,-2053.2 -83.63,-715.02 -325.43,-2842.72 -223.97,-3575.16 59.71,-430.09 6.39,-888.37 -5.3,-1324.05 -11.98,-445.47 -44.08,-875.74 -27.35,-1324.05 15.37,-413.95 120.37,-897.36 23.96,-1287.35l8 -869.35 135.05 -316.04 204.36 1.64c217.58,159.23 165.36,192.02 203.16,511.86l191.87 1814.26c71.69,804.74 143.19,1708.79 131.25,2510.54z"/>
   <path class="fil8" d="M11487.7 13341.25c-58.47,521.35 -222.18,1066.92 -271.96,1644.04 -158.02,1833.87 -573.03,2086 -571.28,3105.04 1.1,577.12 74.65,1246.96 -35.5,1809.25 -126.18,781.48 -1510.23,6723.54 -1413.12,6921.11 -330.83,679.52 -71.4,464.27 -284.49,812.63 -366.18,48.57 -223.68,45.43 -345.4,-192.68l-183.69 -25.56c337.92,-220.83 277.26,-462.19 365.93,-914.63 72.89,-372.17 164.12,-711.33 216.63,-1098.33 191.87,-520.95 1057.39,-5176.72 1064.73,-5756.29 11.03,-864.45 -96.81,-2477.19 256.73,-3175.74 406.06,-802.59 582.3,-1846.25 587.75,-2799.22l109.6 -425.74 479.32 -5.88 24.76 102z"/>
   <path class="fil7" d="M9775.12 5599.87c22.86,106.09 6.68,62.7 49.37,166.6l65.55 91.08c310.05,-25.13 200.42,-46.64 358.99,-244.35 150.39,-187.24 196.51,-162.37 143.59,-474.32 208.05,76.84 80.49,10.48 211.59,283.14 157.07,327.03 468.47,302.42 897.61,275.36 -66.61,116.28 -62.41,84.18 -146.04,137.75l-222.18 132.31 771.29 80.49c12.78,55.36 -37.94,-1.06 -103.5,207.39 477.05,-8.73 522.3,-41.49 1024.52,22.82l69.06 -88.38c195.82,-275.76 125.52,-323.23 161.16,-487.24 275.07,22.86 -51.42,-2.85 276.45,219.08 246.11,-127.27 111.09,-123.87 301.18,-380.06l93.42 -117.48c156.67,-158.57 70.45,-141.84 313.85,-169.45l-39.4 269.11c-254.58,359.94 -621.75,947.13 -770.78,1408.63l110.84 123.91c-225.73,-13.07 -182.74,-47.07 -293.33,106.2 -1008.85,-423.74 -1786.68,12.09 -1979.21,970.76 -234.31,219.77 -191.62,272.66 -185.34,689.31 -174.09,-148.23 -134.65,-417.35 -90.17,-632.85 -356.54,-224.67 -299.97,-317.79 -474.17,-778.67 -365.38,-966.16 -589.75,-765.71 -909.59,-934.86 -529.1,-279.74 -653.01,-96.7 -843.93,-55.91l-28.27 -131.62c-0.8,-298.22 90.82,-274.55 5.04,-630.84 42.84,31.44 107,67.2 138.41,99.95 145.79,-164.92 281.24,-480.96 288.43,-710.93 236.61,160.21 400.33,183.88 690.51,-124.13 11.28,-12.12 60.91,-47.88 67.85,-74.54 6.14,-23.92 21.22,-27.61 34.95,-38.05l12.23 789.77z"/>
   <path class="fil6" d="M15775.24 5668.68c-82.13,429.87 152.29,1315.65 364.98,1567.64 299.42,354.64 986.28,743.68 1099.97,895.72 -134.76,132.16 -1414.22,791.56 -1691.62,34.4 -42.44,-115.99 -79.43,-243.95 -105.65,-264.91l-461.13 -1455.67c-264.37,92.87 -418.4,288.54 -704.39,430.78 -311.4,155.03 -563.79,140.31 -935.7,179.64l-110.84 -123.91c149.04,-461.5 516.2,-1048.7 770.78,-1408.63l81.18 -97.51c412.96,-342.26 378.42,-369.32 661.55,-906.6 83.89,-159.23 191.98,-275.21 298.07,-443.16 308.01,-487.35 226.53,-342.66 360.08,-319.69 136.25,456.24 230.62,1531.7 331.52,1824.08l41.19 87.83z"/>
   <path class="fil9" d="M12865.77 17750.91c11.94,-801.75 -59.56,-1705.79 -131.25,-2510.54l-191.87 -1814.26c-37.8,-319.84 14.43,-352.63 -203.16,-511.86 86.22,-92.07 103.24,97.51 73.19,-261.08 167.37,-142.1 106.05,-142.94 407.92,-153.13 624.7,-21.07 1012.54,-73.44 1207.01,363.88 234.02,526.28 162.22,1397.38 25.02,1900.22 -81.18,297.96 -100.21,597.39 -202.46,900.21l-571.42 1551.72c-158.02,429.73 -180.19,648.11 -412.96,534.83z"/>
   <path class="fil2" d="M7943.44 20131c248.04,804.09 446.56,1668.25 631.79,2499.51 92.18,413.8 189.83,872.49 253.99,1292.54 75.19,490.9 36.45,1099.02 100.76,1480.03 -179.35,273.06 -96.81,495.79 -371.08,782.03 -421.84,21.22 -622.11,-202.06 -780.68,-515.36 -177.89,-351.39 -46.53,-809.49 28.81,-1150.55 331.52,174.86 23.81,285.69 431.22,371.77 224.23,-796.16 -7.08,-840.79 -593.3,-649.98 -57.66,-57.01 -61.86,75.05 -68.55,-220.43 33.6,-545.46 164.26,-2839.87 55.07,-3212.33l65 -353.44c7.89,-380.75 -21.62,-763.66 45.54,-1151.9l201.41 828.12z"/>
   <path class="fil10" d="M11727.45 4217.61c44.19,258.23 73.15,197.17 339.12,226.02 -50.43,-255.93 -68,-403.76 -339.12,-226.02zm-142.24 -1075.35c-17.97,197.17 -46.09,264.77 31.81,439.51 253.63,-32.36 274.15,-161.96 215.79,-383.49 -141.15,-98.71 -35.61,-73.95 -247.6,-56.02zm74.9 -1044.06l-194.72 47.04c-236.46,817.93 855.87,1164.28 1027.22,978.54 143.19,-256.48 -67.71,-357.23 -240.55,-521.1 -93.56,-88.52 -144.69,-137.46 -238.25,-221.64 -146.44,-131.76 -106.31,-69.79 -207.5,-235.55 321.63,34.44 645.92,235.95 900.9,406.86 31.55,426.58 -287.08,713.67 372.06,764.5l95.02 -191.03 -10.59 228.32c-144.95,98.86 -225.47,69.75 -267.36,282.7 -275.21,396.64 -60.51,203.01 -626.6,944.54 -275.76,-28.3 49.52,-58.76 -197.42,-45.69 -0.29,0 -102.69,-59.02 -251.33,97.62 -710.34,27.46 -395.54,95.32 -894.77,-306.36 -555.35,-18.77 -799.71,381.3 -1125.53,-50.32 169.6,-38.2 69.5,44.33 149.73,-67.71 -133.41,-108.1 -120.33,21.88 -76,-245.85 78.19,-471.32 443.57,-93.02 1149.05,-338.46 26.37,-254.29 -6.39,-386.34 39.3,-586.36 59.27,-260.17 133,-208.34 -102.55,-358.33l19.06 156.12c-113.43,114.89 171.31,126.58 -198.41,80.09l-214.99 -9.13 26.51 441.56 152.83 -8.44c0.84,1.1 288.83,-57.26 15.23,166.31 -80.23,65.66 -474.57,28.81 -584.71,24.61 -80.38,-153.93 -68.11,46.09 -28.56,-217.29 -4.89,-321.34 118.03,-338.76 78.48,-656.55 377.21,50.73 707.9,33.74 814.13,-239.46 175.81,-451.86 19.68,-569.63 -390.83,-539.98 101.71,-162.51 -32.5,-112.88 272.11,-104.99 184.13,4.75 356.28,119.13 510.32,202.21l228.72 123.22z"/>
   <path class="fil5" d="M10351.58 1916.51l-249.54 30.6c-7.63,266.12 -29.51,554.66 123.62,710.09 39.55,317.79 -83.37,335.21 -78.48,656.55 -249.1,246.65 93.96,78.19 -356.54,328.13 -60.11,393.53 45.69,273.17 -184.79,516.57 -208.34,56.71 -433.67,79.58 -638.87,5.04 -40.5,-109.6 -97.36,-219.04 -21.22,-369.07 116.68,-230.47 -1.75,53.32 195.96,143.08 487.24,-279.59 -231.97,-626.75 -394.34,-54.96 -109.49,385.39 -37.29,1021.93 222.18,1164.28 -7.19,229.96 -142.65,546 -288.43,710.93 -31.41,-32.76 -95.57,-68.51 -138.41,-99.95 -13.33,-514.67 -878.73,-2042.17 -333.86,-2549.25l2189.49 -1608.83c16.84,-10.99 174.16,-106.86 183.15,-109.19 270.21,-71.94 70.99,-72.75 178.14,40.94 -185.19,367.02 -91.92,286.09 -408.07,485.05z"/>
   <path class="fil11" d="M15110.95 15783.5c54.96,428.37 -336.97,1977.06 -441.67,2483.33 -109.3,529.39 -529.39,1963.07 -508.72,2391.26 -93.12,104.15 -112.19,311.8 -157.87,410.41l-57.23 90.02c-53.32,109.6 -4.49,-38.89 -53.57,161.42 -252.53,1031.13 -249.28,464.49 -481.8,1370.14 -42.14,164.16 -76.14,170.95 -170.4,298.91 -31.66,43.09 -70.01,103.35 -99.92,132.42l-119.53 90.86c-11.43,8.14 -30.75,20.27 -47.33,28.16 -18.52,-862.7 118.18,-1568.59 45.94,-2498.45 67.6,39.84 32.65,26.11 138.3,42.03 322.43,-466.43 111.79,-202.06 278.1,-647.02 75.05,-200.71 201.92,-371.92 280.65,-581.87 76.84,-204.91 57.41,-308.01 179.64,-506.53l287.19 -401.02c89.62,-151.08 55.51,-107.29 78.88,-324.59l575.62 -1907.45c185.19,-349.75 173.5,-381.01 191.47,-857.22 7.6,17.53 22.82,37.8 28.01,50.03l54.23 175.15z"/>
   <path class="fil12" d="M14100.89 5174.53l-18.08 251.69 -81.18 97.51 39.4 -269.11c-243.4,27.61 -157.18,10.88 -313.85,169.45l-93.42 117.48c-190.08,256.18 -55.07,252.79 -301.18,380.06 -327.87,-221.93 -1.39,-196.22 -276.45,-219.08 -35.64,164.01 34.66,211.48 -161.16,487.24l-69.06 88.38c-502.22,-64.31 -547.46,-31.55 -1024.52,-22.82 65.55,-208.45 116.28,-152.03 103.5,-207.39l-771.29 -80.49 222.18 -132.31c83.63,-53.57 79.43,-21.47 146.04,-137.75 342.81,-46.64 96.56,-141.95 377.21,-414.46 233.91,-227.26 291.68,-161.96 216.78,-627.59l-274.85 -22.02c148.63,-156.63 251.04,-97.62 251.33,-97.62 246.95,-13.07 -78.33,17.38 197.42,45.69 566.09,-741.53 351.39,-547.9 626.6,-944.54 241.25,4.75 87.57,-33.74 237.56,98.71 85.02,75.08 94.66,110.44 155.57,198.56 102,147.39 150.53,245.01 269.11,410.92 107.04,149.58 217.73,297.52 285.58,408.36l219.74 383.05c5.7,-10.34 23.81,26.4 36.99,38.09z"/>
   <path class="fil13" d="M8929.98 25403.08l34.84 -0.95c-52.52,387 -143.74,726.15 -216.63,1098.33 -88.67,452.44 -28.01,693.8 -365.93,914.63 -841.59,-56.02 -590.05,-409.46 -937.06,-548.16l-6.68 750.51 -78.85 0c-19.17,-337.37 96.96,-516.46 -8.73,-870.59l-249.94 -624.16c-163.83,-456.9 -484.5,-726.41 -294.79,-1376.02 59.82,-119.24 283.5,-207.91 463.14,-301.87 323.78,-169.16 128.11,-185.74 307.06,-424.25 6.68,295.48 10.88,163.43 68.55,220.43 586.21,-190.81 817.53,-146.19 593.3,649.98 -407.41,-86.08 -99.7,-196.91 -431.22,-371.77 -75.34,341.06 -206.7,799.16 -28.81,1150.55 158.57,313.3 358.84,536.58 780.68,515.36 274.26,-286.24 191.73,-508.97 371.08,-782.03z"/>
   <path class="fil14" d="M10438.06 24225.61c-17.97,621.56 -871.39,2323.52 -1242.21,2595.08 -97.11,-197.57 1286.95,-6139.63 1413.12,-6921.11l218.68 91.12c57.77,492.94 -14.28,695.15 -92.21,1128.64l-243 2174.92c-60.77,371.77 -151.74,562.99 -54.38,931.36z"/>
   <path class="fil14" d="M9605.85 4158.45l171.71 -20.38 23.12 138.56c325.83,431.62 570.18,31.55 1125.53,50.32 499.22,401.68 184.42,333.83 894.77,306.36l274.85 22.02c74.9,465.62 17.13,400.33 -216.78,627.59 -280.65,272.51 -34.4,367.82 -377.21,414.46 -429.14,27.06 -740.54,51.68 -897.61,-275.36 -131.11,-272.66 -3.54,-206.3 -211.59,-283.14l-86.77 20.01 -63.47 -100.76 -165.65 -337.11c-149.69,17.13 -233.76,57.52 -313.85,89.07 -13.73,10.44 -28.81,14.13 -34.95,38.05 -6.94,26.66 -56.57,62.41 -67.85,74.54 -290.18,308.01 -453.9,284.34 -690.51,124.13 -259.47,-142.35 -331.67,-778.89 -222.18,-1164.28 162.37,-571.79 881.58,-224.63 394.34,54.96 -197.72,-89.77 -79.28,-373.56 -195.96,-143.08 -76.14,150.02 -19.28,259.47 21.22,369.07 205.2,74.54 430.53,51.68 638.87,-5.04z"/>
   <path class="fil15" d="M2507.8 4198.73c41.19,39.84 11.83,23.52 55.62,119.09 -205.2,155.87 -28.3,-86.73 -105.8,134.25 -28.7,81.44 -16.47,124.28 -11.98,214.7l-144.14 -30.2c-175.95,-118.83 -253.34,-274.41 -476.76,-352.6 -98.71,-239.06 -490.2,-554.66 -779.73,-657.61 -241.91,-85.93 -424.94,-32.1 -632.99,-79.14 -149.44,-33.85 -246.4,-150.28 -412.01,-253.74l50.98 -310.6c771.69,-503.28 938.3,29.25 1532.4,-47.44 53.72,-355.74 -102,-1014.73 484.65,-559.99 -73.29,295.22 -60.51,57.92 -180.33,291.28 -68.8,134.06 -75.6,208.45 -18.88,357.49 58.07,152.72 113.28,95.21 137.9,330.43 20.38,193.92 -154.92,585.85 501.08,844.08z"/>
   <path class="fil16" d="M13230.6 2791.15c-59.16,86.77 -18.62,-37.94 -45.28,115.58 -13.59,77.49 -10.08,142.79 -11.03,219.08l-95.02 191.03c-659.14,-50.84 -340.51,-337.92 -372.06,-764.5 -254.98,-170.91 -579.27,-372.43 -900.9,-406.86l-146.19 -47.29 -228.72 -123.22c-154.04,-83.08 -326.19,-197.46 -510.32,-202.21 -304.61,-7.89 -170.4,-57.52 -272.11,104.99l-297.38 38.75c316.15,-198.96 222.88,-118.03 408.07,-485.05l59.97 -72.05c860.36,-990.12 2066.28,706.14 2410.98,1431.75z"/>
   <path class="fil17" d="M13564.42 8131.74c28.45,310.74 -48.79,278.24 128.51,502.73 -327.43,-21.33 -139.65,5.33 -210.1,63.91 -398.83,-2.7 -398.28,685.65 -1120.89,754.71 -32.25,-426.99 114.89,-651.36 25.42,-1112.06 -442.22,-36.3 -376.66,659.65 -597.64,936.65 -638.18,-102.8 -359.68,-857.77 -690.51,-1143.35l185.34 -450.51c230.62,121.57 91.37,177.3 398.28,316.95 427.68,194.47 1530.64,498.67 1779.49,20.16 26.91,236.61 -5.7,1.9 102.11,110.8z"/>
   <path class="fil18" d="M13142.88 7705.44c-41.34,-331.27 -100.06,-413.11 -452.81,-402.37 43.09,303.11 130.81,368.63 452.81,402.37zm-94.51 -542.97c150.83,348.91 433.82,376.41 516.06,969.27 -107.81,-108.9 -75.19,125.81 -102.11,-110.8 -248.84,478.52 -1351.81,174.31 -1779.49,-20.16 -306.91,-139.65 -167.66,-195.38 -398.28,-316.95l-185.34 450.51 -30.06 -1.1c192.53,-958.67 970.36,-1394.5 1979.21,-970.76z"/>
   <path class="fil19" d="M13482.84 8698.37c206.3,209.15 -28.16,554 -187.24,767.49 -103.35,138.7 -641.43,305.16 -819.72,341.75l-141.84 -4.09c-196.22,76.29 -471.72,37.4 -610.28,-46.38l-168.36 -163.46c-425.34,-79.8 -508.28,-350.95 -671.59,-771.15 -6.28,-416.65 -48.97,-469.53 185.34,-689.31l30.06 1.1c330.83,285.58 52.33,1040.55 690.51,1143.35 220.98,-277 155.43,-972.95 597.64,-936.65 89.47,460.69 -57.66,685.07 -25.42,1112.06 722.61,-69.06 722.06,-757.42 1120.89,-754.71z"/>
   <path class="fil10" d="M11790.52 12042.47c10.88,387.03 180.74,473.77 522.59,508.46l96.27 -236.76 3.29 339.01c30.06,358.59 13.04,169.01 -73.19,261.08l-204.36 -1.64 -135.05 316.04 52.62 -340.36c-170.22,49.63 -226.53,89.22 -347.41,174.75 -288.18,203.96 -42.98,54.12 -217.58,278.21l-24.76 -102 -479.32 5.88 -109.6 425.74c1.35,-731.45 -115.88,-704.79 -128.66,-1004.65 -9.79,-227.33 72.2,-271.27 164.81,-404.82 96.96,-139.8 98.6,-209 205.46,-328.79l-18.88 282.15 604.98 130.96 88.78 -303.26z"/>
   <path class="fil20" d="M12048.35 10705.89l-257.83 1336.58 -88.78 303.26 -604.98 -130.96 18.88 -282.15 295.63 -1204.16c13.22,-11.8 24.21,-31.66 32.5,-41.85 272.4,-334.52 107.15,-152.18 595.89,-164.56l8.69 183.84z"/>
   <path class="fil21" d="M12409.38 12314.18l-96.27 236.76c-341.86,-34.69 -511.71,-121.43 -522.59,-508.46l257.83 -1336.58c210.79,-201.92 275.25,-545.42 285.69,-902.36l141.84 4.09 -66.5 2506.56z"/>
   <path class="fil22" d="M14100.89 5174.53c-13.18,-11.69 -31.3,-48.42 -36.99,-38.09l-219.74 -383.05c-67.85,-110.84 -178.54,-258.78 -285.58,-408.36 -118.58,-165.91 -167.11,-263.53 -269.11,-410.92 -60.91,-88.12 -70.56,-123.47 -155.57,-198.56 -149.99,-132.46 3.69,-93.96 -237.56,-98.71 41.89,-212.95 122.41,-183.84 267.36,-282.7l10.59 -228.32c0.95,-76.29 -2.56,-141.59 11.03,-219.08 26.66,-153.53 -13.88,-28.81 45.28,-115.58 341.31,464.78 785.43,1640.9 870.3,2383.38z"/>
   <path class="fil14" d="M10225.66 2657.2c-153.13,-155.43 -131.25,-443.97 -123.62,-710.09l249.54 -30.6 297.38 -38.75c410.52,-29.65 566.64,88.12 390.83,539.98 -106.24,273.2 -436.92,290.18 -814.13,239.46z"/>
   <path class="fil23" d="M11806.3 2145.49c101.2,165.76 61.06,103.79 207.5,235.55 93.56,84.18 144.69,133.11 238.25,221.64 172.85,163.86 383.75,264.62 240.55,521.1 -171.35,185.74 -1263.69,-160.61 -1027.22,-978.54l194.72 -47.04 146.19 47.29z"/>
   <path class="fil24" d="M12334.04 9803.53c-10.44,356.94 -74.9,700.45 -285.69,902.36l-8.69 -183.84c-488.74,12.38 -323.49,-169.96 -595.89,164.56 -8.29,10.19 -19.28,30.06 -32.5,41.85l144.14 -1134.77 168.36 163.46c138.56,83.78 414.06,122.67 610.28,46.38z"/>
   <path class="fil25" d="M7304.31 31158.3c314.94,-114.93 688.21,32.9 1029.27,75.19l-55.07 137.61 -518.8 64.6c-418.95,7.74 -863.21,46.09 -1193.5,-162.11 -121.17,-543.52 424.14,-1127.14 468.03,-518.1l-251.69 57.66c12.78,207.94 78.44,289.13 156.23,429.03l365.52 -83.89z"/>
   <path class="fil26" d="M14810.98 31291.56c-78.04,68.26 -47.18,85.53 -258.38,75.6l-939.06 -20.27c128.37,-306.22 196.88,-98.31 430.89,-296.58 163.32,-138.3 135.45,-339.01 202.5,-539.17 300.37,2.85 296.98,25.56 407.52,259.87 97.25,205.75 149.18,273.86 156.52,520.55z"/>
   <path class="fil27" d="M9800.68 4276.62l-23.12 -138.56 -171.71 20.38c230.47,-243.4 124.68,-123.03 184.79,-516.57 450.51,-249.94 107.44,-81.48 356.54,-328.13 -39.55,263.38 -51.82,63.36 28.56,217.29 110.14,4.2 504.48,41.05 584.71,-24.61 273.6,-223.57 -14.39,-165.21 -15.23,-166.31l147.03 -271.3c-39.84,-50.58 -76.03,-112.15 -111.38,-152.69 369.72,46.49 84.98,34.8 198.41,-80.09l-19.06 -156.12c235.55,149.99 161.82,98.16 102.55,358.33 -45.69,200.02 -12.93,332.07 -39.3,586.36 -705.48,245.45 -1070.86,-132.86 -1149.05,338.46 -44.33,267.72 -57.41,137.75 76,245.85 -80.23,112.04 19.87,29.51 -149.73,67.71z"/>
   <path class="fil28" d="M10242.38 5058.14l63.47 100.76 -27.32 167.26 -434.07 124.68 -27.32 -428.63c22.42,-125.77 37.65,-112.04 72.89,-170.11 132.16,25.56 119.93,21.91 198.52,74.54 98.06,65.66 -10.99,15.37 153.82,131.51z"/>
   <path class="fil29" d="M10242.38 5058.14c-164.81,-116.13 -55.77,-65.84 -153.82,-131.51 -78.59,-52.62 -66.36,-48.97 -198.52,-74.54 -35.24,58.07 -50.47,44.33 -72.89,170.11l27.32 428.63 434.07 -124.68c-149.18,236.72 -101.45,112.85 -273.86,292.89l-229.56 -19.17 -12.23 -789.77c80.09,-31.55 164.16,-71.94 313.85,-89.07l165.65 337.11z"/>
   <path class="fil30" d="M9775.12 5599.87l229.56 19.17c172.41,-180.04 124.68,-56.17 273.86,-292.89l27.32 -167.26 86.77 -20.01c52.92,311.95 6.79,287.08 -143.59,474.32 -158.57,197.72 -48.94,219.23 -358.99,244.35l-65.55 -91.08c-42.69,-103.9 -26.51,-60.51 -49.37,-166.6z"/>
   <path class="fil31" d="M13142.88 7705.44c-321.99,-33.74 -409.71,-99.26 -452.81,-402.37 352.74,-10.74 411.47,71.1 452.81,402.37z"/>
   <path class="fil32" d="M11832.81 3198.27c58.36,221.53 37.83,351.14 -215.79,383.49 -77.9,-174.75 -49.78,-242.34 -31.81,-439.51 212,-17.93 106.45,-42.69 247.6,56.02z"/>
   <path class="fil32" d="M10745.22 3340.12l-152.83 8.44 -26.51 -441.56 214.99 9.13c35.35,40.54 71.54,102.11 111.38,152.69l-147.03 271.3z"/>
   <path class="fil33" d="M12066.57 4443.63c-265.97,-28.85 -294.93,32.21 -339.12,-226.02 271.12,-177.74 288.69,-29.91 339.12,226.02z"/>
  </g>
 </g>
</svg>
